<svg width="80" height="80" viewBox="0 0 80 80" fill="none" xmlns="http://www.w3.org/2000/svg">
<path d="M61.3333 40C61.3333 54.7276 49.3943 66.6666 34.6667 66.6666C19.9391 66.6666 8 54.7276 8 40C8 25.2724 19.9391 13.3333 34.6667 13.3333C49.3943 13.3333 61.3333 25.2724 61.3333 40Z" fill="url(#paint0_linear_2058_9957)"/>
<path fill-rule="evenodd" clip-rule="evenodd" d="M34.6667 66C49.0261 66 60.6667 54.3594 60.6667 40C60.6667 25.6406 49.0261 14 34.6667 14C20.3073 14 8.66667 25.6406 8.66667 40C8.66667 54.3594 20.3073 66 34.6667 66ZM34.6667 66.6666C49.3943 66.6666 61.3333 54.7276 61.3333 40C61.3333 25.2724 49.3943 13.3333 34.6667 13.3333C19.9391 13.3333 8 25.2724 8 40C8 54.7276 19.9391 66.6666 34.6667 66.6666Z" fill="url(#paint1_linear_2058_9957)"/>
<g filter="url(#filter0_bd_2058_9957)">
<path fill-rule="evenodd" clip-rule="evenodd" d="M71.4938 18.5049C73.0559 20.067 73.0559 22.5996 71.4938 24.1617L45.4938 50.1617C43.9317 51.7238 41.399 51.7238 39.8369 50.1617L24.5036 34.8284C22.9415 33.2663 22.9415 30.7336 24.5036 29.1716C26.0657 27.6095 28.5984 27.6095 30.1605 29.1716L42.6654 41.6765L65.8369 18.5049C67.399 16.9428 69.9317 16.9428 71.4938 18.5049Z" fill="url(#paint2_linear_2058_9957)" shape-rendering="crispEdges"/>
</g>
<g filter="url(#filter1_bd_2058_9957)">
<path fill-rule="evenodd" clip-rule="evenodd" d="M65.6025 18.2692C67.2948 16.5769 70.0385 16.5769 71.7308 18.2692C73.4231 19.9615 73.4231 22.7052 71.7308 24.3975L45.7308 50.3975C44.0385 52.0897 41.2948 52.0897 39.6025 50.3975L24.2692 35.0641C22.5769 33.3719 22.5769 30.6281 24.2692 28.9359C25.9615 27.2436 28.7052 27.2436 30.3975 28.9359L42.6667 41.2051L65.6025 18.2692ZM71.2594 18.7406C69.8275 17.3087 67.5059 17.3087 66.0739 18.7406L42.9024 41.9122C42.7722 42.0424 42.5611 42.0424 42.431 41.9122L29.9261 29.4073C28.4941 27.9754 26.1725 27.9754 24.7406 29.4073C23.3087 30.8392 23.3087 33.1608 24.7406 34.5927L40.0739 49.9261C41.5059 51.358 43.8275 51.358 45.2594 49.9261L71.2594 23.9261C72.6913 22.4941 72.6913 20.1725 71.2594 18.7406Z" fill="url(#paint3_linear_2058_9957)" shape-rendering="crispEdges"/>
</g>
<defs>
<filter id="filter0_bd_2058_9957" x="18.332" y="12.3333" width="59.332" height="47" filterUnits="userSpaceOnUse" color-interpolation-filters="sRGB">
<feFlood flood-opacity="0" result="BackgroundImageFix"/>
<feGaussianBlur in="BackgroundImageFix" stdDeviation="2.5"/>
<feComposite in2="SourceAlpha" operator="in" result="effect1_backgroundBlur_2058_9957"/>
<feColorMatrix in="SourceAlpha" type="matrix" values="0 0 0 0 0 0 0 0 0 0 0 0 0 0 0 0 0 0 127 0" result="hardAlpha"/>
<feOffset dy="4"/>
<feGaussianBlur stdDeviation="2"/>
<feComposite in2="hardAlpha" operator="out"/>
<feColorMatrix type="matrix" values="0 0 0 0 0.523635 0 0 0 0 0.530512 0 0 0 0 0.386095 0 0 0 0.2 0"/>
<feBlend mode="normal" in2="effect1_backgroundBlur_2058_9957" result="effect2_dropShadow_2058_9957"/>
<feBlend mode="normal" in="SourceGraphic" in2="effect2_dropShadow_2058_9957" result="shape"/>
</filter>
<filter id="filter1_bd_2058_9957" x="18" y="12" width="60" height="47.6667" filterUnits="userSpaceOnUse" color-interpolation-filters="sRGB">
<feFlood flood-opacity="0" result="BackgroundImageFix"/>
<feGaussianBlur in="BackgroundImageFix" stdDeviation="2.5"/>
<feComposite in2="SourceAlpha" operator="in" result="effect1_backgroundBlur_2058_9957"/>
<feColorMatrix in="SourceAlpha" type="matrix" values="0 0 0 0 0 0 0 0 0 0 0 0 0 0 0 0 0 0 127 0" result="hardAlpha"/>
<feOffset dy="4"/>
<feGaussianBlur stdDeviation="2"/>
<feComposite in2="hardAlpha" operator="out"/>
<feColorMatrix type="matrix" values="0 0 0 0 0.523635 0 0 0 0 0.530512 0 0 0 0 0.386095 0 0 0 0.2 0"/>
<feBlend mode="normal" in2="effect1_backgroundBlur_2058_9957" result="effect2_dropShadow_2058_9957"/>
<feBlend mode="normal" in="SourceGraphic" in2="effect2_dropShadow_2058_9957" result="shape"/>
</filter>
<linearGradient id="paint0_linear_2058_9957" x1="14" y1="13.3333" x2="66.6667" y2="66.6666" gradientUnits="userSpaceOnUse">
<stop stop-color="#D2F75A"/>
<stop offset="1" stop-color="#4285F4"/>
</linearGradient>
<linearGradient id="paint1_linear_2058_9957" x1="23.3333" y1="18" x2="52.6667" y2="62.6666" gradientUnits="userSpaceOnUse">
<stop stop-color="#E9FFB7"/>
<stop offset="1" stop-color="#73B8F2"/>
</linearGradient>
<linearGradient id="paint2_linear_2058_9957" x1="23.9987" y1="40" x2="83.332" y2="17.3333" gradientUnits="userSpaceOnUse">
<stop stop-color="white" stop-opacity="0.2"/>
<stop offset="1" stop-color="#D6FE88" stop-opacity="0.5"/>
</linearGradient>
<linearGradient id="paint3_linear_2058_9957" x1="24" y1="27.3333" x2="79.3333" y2="34.6667" gradientUnits="userSpaceOnUse">
<stop stop-color="white" stop-opacity="0.5"/>
<stop offset="1" stop-color="#F2FFCA"/>
</linearGradient>
</defs>
</svg>
