<svg width="336" height="280" viewBox="0 0 336 280" fill="none" xmlns="http://www.w3.org/2000/svg">
<g clip-path="url(#clip0_4001_14837)">
<rect width="336" height="280" rx="8" fill="#101010"/>
<path d="M235.127 113.92C235.109 114.962 234.962 116.08 234.663 117.239L230.32 134.03L234.175 132.198L239.252 112.557L235.127 113.92Z" fill="#D2F75A"/>
<path d="M224.38 118.904H224.021L219.355 136.953L221.841 135.701C221.912 135.701 222.047 135.18 222.129 134.864L225.796 120.677C226.013 119.009 225.678 118.904 224.385 118.904H224.38Z" fill="#D2F75A"/>
<path d="M252.966 119.113H246.561L244.434 127.324L269.149 115.59L271.199 102L257.296 106.594H260.957L252.966 119.113Z" fill="#D2F75A"/>
<path d="M86.4615 140.296L83.5352 131.845C83.1238 130.388 82.6714 128.509 83.1062 126.835L85.2921 118.384C85.4567 117.758 86.4262 117.342 86.6437 117.342C86.8611 117.342 87.6896 117.758 87.5251 118.384L84.7985 128.919L94.1181 123.493L95.6283 117.647C97.1384 111.806 95.0407 106.275 90.8686 106.275H87.9188C83.8172 106.275 78.658 111.179 76.9891 117.647L75.1264 124.845C73.4282 131.418 72.9346 135.281 74.5623 140.39C75.4555 142.789 76.425 145.71 77.3182 148.11C77.6884 149.467 78.1174 152.803 77.6355 154.682L74.909 165.223C74.6681 166.159 73.675 166.37 73.4635 166.37C73.3166 166.37 72.5115 166.159 72.7818 165.117L76.5073 150.72L67.0408 156.145L64.5023 165.954C62.9628 171.901 65.0723 177.115 69.3208 177.115H72.347C76.666 177.115 81.4785 172.421 83.1826 165.849L86.0678 154.688C87.4193 149.473 87.8659 144.668 86.4791 140.29L86.4615 140.296Z" fill="white"/>
<path d="M110.035 145.712C109.083 146.339 99.6813 153.748 99.6813 153.748L96.8196 164.804C96.4435 166.267 94.2106 166.267 94.7041 164.909L106.656 118.691C107.009 117.333 109.024 117.333 108.772 118.585L103.859 137.571L114.025 130.267L117.368 117.333C118.796 111.802 116.628 106.277 112.526 106.277H109.5C105.399 106.277 100.322 110.866 98.6471 117.333L86.1015 165.845C84.4797 172.108 86.8595 177.112 91.1785 177.112H94.1283C98.3062 177.112 103.119 172.418 104.817 165.845L110.023 145.712H110.035Z" fill="white"/>
<path d="M129.594 106.594L102.922 176.603H112.494C114.092 171.804 116.378 164.922 118.082 160.017H121.467L118.905 176.603H127.901C131.145 154.592 134.383 128.717 137.726 106.594H129.594ZM123.594 149.266H121.579L125.927 136.642C125.862 137.163 123.676 148.956 123.6 149.266H123.594Z" fill="white"/>
<path d="M164.001 117.44C165.564 111.388 163.138 106.589 158.889 106.589H148.089L129.984 176.598H138.84L145.074 152.497L146.955 151.35L151.726 148.219C156.362 144.777 158.043 140.499 159.095 136.431L164.007 117.44H164.001ZM150.909 137.163L148.289 138.936L153.225 119.845C153.307 119.529 154.035 119.219 154.464 119.219C154.823 119.219 155.463 119.529 155.381 119.845L150.903 137.163H150.909Z" fill="white"/>
<path d="M189.761 119.423L193.081 106.594H169.253L165.933 119.423H173.349L158.559 176.598H167.561L182.345 119.423H189.761Z" fill="white"/>
<path d="M206.962 106.594L191.907 164.81C191.825 165.126 191.261 165.647 190.903 165.647H190.615C190.256 165.647 189.745 165.126 189.821 164.81L204.876 106.594H196.238L180.884 165.958C179.291 172.115 181.595 177.119 185.99 177.119H189.592C193.694 177.119 198.806 172.115 200.398 165.958L215.753 106.594H206.968H206.962Z" fill="white"/>
<path d="M219.368 119.125L235.128 113.916C235.204 109.521 232.924 106.384 229.551 106.384H218.827L200.641 176.703H209.566L214.426 157.922L213.022 176.703H222.094L223.763 154.375C223.987 151.56 224.075 148.429 224.304 145.614C227.336 142.793 228.846 139.457 230.109 134.869L230.327 134.026L213.615 141.962L219.374 119.125H219.368Z" fill="white"/>
<path d="M234.179 132.192L222.691 176.596H238.099L246.114 163.971H234.955L239.515 146.343H243.475L251.49 133.719H242.782L244.433 127.322L234.179 132.192Z" fill="white"/>
<path d="M240.797 106.594L239.258 112.552L257.298 106.594H240.797Z" fill="white"/>
</g>
<defs>
<clipPath id="clip0_4001_14837">
<rect width="336" height="280" fill="white"/>
</clipPath>
</defs>
</svg>
