<svg width="57" height="52" viewBox="0 0 57 52" fill="none" xmlns="http://www.w3.org/2000/svg">
<g id="Group 1000003883">
<path id="Vector" d="M26.2883 31.7406C35.0532 31.7406 42.1585 24.6352 42.1585 15.8703C42.1585 7.10537 35.0532 0 26.2883 0C17.5233 0 10.418 7.10537 10.418 15.8703C10.418 24.6352 17.5233 31.7406 26.2883 31.7406Z" fill="#EFD847"/>
<path id="Vector_2" d="M26.2914 30.6062C34.4302 30.6062 41.0281 24.0084 41.0281 15.8695C41.0281 7.73065 34.4302 1.13281 26.2914 1.13281C18.1525 1.13281 11.5547 7.73065 11.5547 15.8695C11.5547 24.0084 18.1525 30.6062 26.2914 30.6062Z" fill="#F9F68B"/>
<path id="Vector_3" d="M27.4412 17.6532C27.327 17.8007 27.2343 17.9612 27.1481 18.1239C26.661 19.0329 25.2429 22.018 25.5835 25.4348C25.799 27.6041 27.0921 27.8211 27.9541 25.8686C28.8162 23.9162 28.3852 22.6146 30.1093 20.879C31.8334 19.1435 33.5575 19.3605 34.4196 19.3605C35.2816 19.3605 37.0058 19.1435 37.2213 18.0588C37.4368 16.9741 36.1437 16.3233 35.0661 16.1064C33.9885 15.8895 29.2774 15.2712 27.4434 17.6532H27.4412Z" fill="#F9E66E"/>
<path id="Vector_4" d="M27.8937 14.3518C28.0811 14.3385 28.2619 14.2985 28.4449 14.254C29.4513 14.0028 32.6384 13.0401 34.9563 10.4367C36.429 8.78258 35.7144 7.64428 33.6754 8.32237C31.6363 9.00046 30.9566 10.2255 28.495 10.0943C26.0333 9.96313 25.029 8.49356 24.4452 7.83326C23.8614 7.17295 22.5325 6.0013 21.5783 6.57935C20.6241 7.15739 21.0141 8.59583 21.5805 9.56961C22.1469 10.5434 24.8765 14.5786 27.8937 14.3496V14.3518Z" fill="#F9E66E"/>
<path id="Vector_5" d="M24.9022 16.0485C24.8317 15.8762 24.7392 15.7169 24.64 15.5576C24.0958 14.6834 22.2119 11.9619 19.0435 10.5409C17.0318 9.63876 16.1725 10.6442 17.4372 12.3667C18.702 14.0892 20.0658 14.3712 20.696 16.7288C21.3262 19.0865 20.2443 20.4623 19.7992 21.2051C19.3542 21.9479 18.6535 23.5433 19.4908 24.2732C20.328 25.0031 21.5685 24.2151 22.3155 23.3948C23.0624 22.5745 26.0392 18.8238 24.9 16.0485H24.9022Z" fill="#F9E66E"/>
<g id="Rectangle 34624923" filter="url(#filter0_b_2105_4754)">
<path d="M0.730555 27.9293C0.327081 23.1726 3.85614 18.9893 8.61294 18.5859L45.6264 15.4463C50.3832 15.0429 54.5664 18.5719 54.9699 23.3287L56.2694 38.65C56.6729 43.4067 53.1439 47.59 48.3871 47.9934L11.3736 51.133C6.61681 51.5364 2.43358 48.0074 2.03011 43.2506L0.730555 27.9293Z" fill="url(#paint0_linear_2105_4754)"/>
</g>
<g id="Rectangle 34624923 (Stroke)" filter="url(#filter1_b_2105_4754)">
<path fill-rule="evenodd" clip-rule="evenodd" d="M45.6995 16.3076L8.68599 19.4471C4.40488 19.8103 1.22872 23.5752 1.59185 27.8563L2.8914 43.1775C3.25453 47.4586 7.01943 50.6348 11.3005 50.2717L48.314 47.1322C52.5951 46.769 55.7713 43.0041 55.4082 38.723L54.1086 23.4018C53.7455 19.1207 49.9806 15.9445 45.6995 16.3076ZM8.61294 18.5859C3.85614 18.9893 0.327081 23.1726 0.730555 27.9293L2.03011 43.2506C2.43358 48.0074 6.61681 51.5364 11.3736 51.133L48.3871 47.9934C53.1439 47.59 56.6729 43.4067 56.2694 38.65L54.9699 23.3287C54.5664 18.5719 50.3832 15.0429 45.6264 15.4463L8.61294 18.5859Z" fill="url(#paint1_linear_2105_4754)"/>
</g>
<path id="Vector_6" d="M11.2608 43.3507C11.7583 42.8109 13.2826 42.074 13.8112 42.6313C14.3399 43.1886 13.6708 44.8283 13.176 45.3672C12.6812 45.9062 11.8479 45.8922 11.3192 45.3349C10.7906 44.7776 10.766 43.8896 11.2635 43.3498L11.2608 43.3507Z" fill="#FFFEDE"/>
<path id="Vector_7" d="M9.13201 40.3499C9.4795 40.3828 10.2348 40.74 10.2219 41.0922C10.209 41.4444 9.43328 41.6559 9.08579 41.6231C8.73829 41.5902 8.46799 41.2794 8.48086 40.9272C8.49373 40.575 8.78452 40.317 9.13201 40.3499Z" fill="#FFFEDE"/>
<path id="B" d="M22.7474 42.9507L21.0625 24.1328L28.6518 23.4533C32.8549 23.0769 35.1686 24.8872 35.4091 27.7214C35.6201 29.9295 34.2689 31.4522 32.3441 32.0569L32.3604 32.2388C34.5174 32.1505 36.6978 33.6582 36.96 36.4381C37.2144 39.4284 35.146 41.8406 30.8375 42.2263L22.7474 42.9507ZM26.4116 39.3738L29.7583 39.0742C32.0521 38.8819 32.9565 37.8577 32.8165 36.4424C32.6877 34.8557 31.3623 33.8478 29.4122 34.0224L25.9601 34.3315L26.4116 39.3738ZM25.7204 31.6543L28.7773 31.3806C30.4386 31.245 31.6077 30.2102 31.4595 28.7039C31.3505 27.3381 30.2402 26.5074 28.4351 26.6691L25.2992 26.9499L25.7204 31.6543Z" fill="#FFFEDE"/>
</g>
<defs>
<filter id="filter0_b_2105_4754" x="-9.30078" y="5.41504" width="75.6016" height="55.7495" filterUnits="userSpaceOnUse" color-interpolation-filters="sRGB">
<feFlood flood-opacity="0" result="BackgroundImageFix"/>
<feGaussianBlur in="BackgroundImageFix" stdDeviation="5"/>
<feComposite in2="SourceAlpha" operator="in" result="effect1_backgroundBlur_2105_4754"/>
<feBlend mode="normal" in="SourceGraphic" in2="effect1_backgroundBlur_2105_4754" result="shape"/>
</filter>
<filter id="filter1_b_2105_4754" x="-9.30078" y="5.41504" width="75.6016" height="55.7495" filterUnits="userSpaceOnUse" color-interpolation-filters="sRGB">
<feFlood flood-opacity="0" result="BackgroundImageFix"/>
<feGaussianBlur in="BackgroundImageFix" stdDeviation="5"/>
<feComposite in2="SourceAlpha" operator="in" result="effect1_backgroundBlur_2105_4754"/>
<feBlend mode="normal" in="SourceGraphic" in2="effect1_backgroundBlur_2105_4754" result="shape"/>
</filter>
<linearGradient id="paint0_linear_2105_4754" x1="8.55622" y1="28.1455" x2="31.1871" y2="53.998" gradientUnits="userSpaceOnUse">
<stop stop-color="#C7BB88" stop-opacity="0.5"/>
<stop offset="1" stop-color="#C7BB88" stop-opacity="0.2"/>
</linearGradient>
<linearGradient id="paint1_linear_2105_4754" x1="7.52558" y1="22.187" x2="31.7287" y2="55.8314" gradientUnits="userSpaceOnUse">
<stop stop-color="#FFF3C1"/>
<stop offset="1" stop-color="#FFF3C1" stop-opacity="0.3"/>
</linearGradient>
</defs>
</svg>
