<svg width="18" height="18" viewBox="0 0 18 18" fill="none" xmlns="http://www.w3.org/2000/svg">
<path d="M0 9.52795C0.0848248 9.16689 0.176346 8.8081 0.25001 8.44477C0.279029 8.30625 0.337067 8.21315 0.446446 8.12913C0.662973 7.96109 0.868338 7.77942 1.08486 7.59776C1.36389 7.8044 1.62506 8.02013 1.90856 8.20179C2.2367 8.41298 2.57376 8.61735 2.92645 8.77858C3.34835 8.9716 3.78363 9.1351 4.22338 9.2827C5.52477 9.72097 6.84848 9.68918 8.16773 9.40305C8.66998 9.29406 9.16331 9.11012 9.63654 8.90348C10.2125 8.65141 10.7594 8.32669 11.2549 7.93611C11.8688 7.4547 12.4291 6.91424 12.8956 6.28069C12.9335 6.22846 12.9782 6.18077 13.034 6.11719C13.1523 6.20802 13.2751 6.28977 13.3778 6.38968C13.409 6.42148 13.4157 6.52593 13.3867 6.56454C13.2684 6.73258 13.1434 6.89835 13.0027 7.04822C12.5876 7.49784 12.1657 7.93611 11.6768 8.30852C11.1857 8.68321 10.6879 9.03518 10.1232 9.2827C9.75038 9.4462 9.37537 9.60061 8.99812 9.75049C7.92442 10.1774 6.80161 10.2364 5.6721 10.157C5.1386 10.1184 4.60509 10.0116 4.08721 9.87765C3.65639 9.76638 3.22781 9.60743 2.8327 9.40305C2.2858 9.12147 1.76793 8.77631 1.23889 8.45613C1.18978 8.4266 1.15406 8.37892 1.12504 8.35394C0.721011 8.497 0.741101 8.8785 0.647347 9.19868C0.573683 9.44393 0.596006 9.67101 0.727707 9.88901C0.977717 10.2955 1.20764 10.7201 1.48667 11.1062C1.77909 11.5104 2.11839 11.8805 2.43536 12.2666C2.44653 12.2802 2.45099 12.2961 2.46662 12.3256C2.34607 12.4573 2.22553 12.589 2.09383 12.7298C1.91972 12.5345 1.74337 12.3347 1.56479 12.1348C0.964324 11.4695 0.511181 10.7042 0.113844 9.90263C0.0758958 9.8277 0.0379479 9.75049 0 9.67101C0 9.62332 0 9.57564 0 9.52795Z" fill="#FFED1D"/>
<path d="M14.555 0H16.8497C16.8162 0.347434 16.7827 0.683515 16.7492 1.0196C16.68 1.69403 16.6108 2.36846 16.5483 3.04289C16.5439 3.09285 16.5796 3.17233 16.6198 3.19958C16.9122 3.38578 17.0818 3.66963 17.2069 3.97847C17.7962 5.44087 18.0596 6.96458 17.9904 8.5428C17.9435 9.61008 17.7493 10.6524 17.3877 11.6606C17.1488 12.326 16.8564 12.9618 16.4881 13.5636C16.1733 14.079 15.8229 14.5627 15.4188 15.0101C14.9166 15.5664 14.3675 16.0615 13.7491 16.4838C13.1866 16.8676 12.5906 17.1719 11.9633 17.4308C11.2624 17.7192 10.5369 17.8645 9.79361 17.9303C9.36502 17.9689 8.92974 18.0257 8.50562 17.9871C7.7355 17.9167 6.96314 17.8032 6.22874 17.5375C5.87382 17.4103 5.51443 17.2786 5.18852 17.0901C4.64832 16.779 4.11928 16.4452 3.6148 16.0774C3.2688 15.823 2.97415 15.496 2.66164 15.1963C2.61922 15.1554 2.58128 15.0918 2.57458 15.0328C2.52324 14.6127 2.47859 14.1949 2.44065 13.7748C2.43395 13.7157 2.45627 13.643 2.48752 13.5908C2.62369 13.3478 2.76878 13.1117 2.90495 12.871C2.95406 12.7847 3.00763 12.7711 3.10585 12.796C3.58578 12.9187 4.07241 13.0208 4.55234 13.1435C5.2912 13.3342 6.039 13.3002 6.77787 13.1957C7.31584 13.1185 7.8538 12.9777 8.36945 12.8006C9.05921 12.5644 9.70879 12.2261 10.3048 11.7969C10.7021 11.5108 11.0861 11.1951 11.4343 10.8499C12.22 10.0711 12.854 9.17409 13.3228 8.1613C13.7558 7.22573 14.0349 6.24474 14.1688 5.21833C14.2179 4.84819 14.2514 4.4735 14.3183 4.1079C14.3742 3.81042 14.5215 3.54701 14.7559 3.35626C14.8809 3.25635 14.8898 3.14735 14.8764 3.01564C14.8117 2.40025 14.7469 1.78713 14.6844 1.17174C14.6443 0.787972 14.6063 0.404205 14.5639 0.00227081L14.555 0ZM9.20877 17.3831C9.84049 17.3581 10.7088 17.2718 11.5504 16.9539C12.2357 16.6927 12.9009 16.4021 13.4857 15.9547C13.8697 15.6618 14.2402 15.3462 14.6063 15.0282C15.0974 14.6013 15.4813 14.079 15.8452 13.5409C16.3073 12.8551 16.6644 12.1171 16.9256 11.3336C17.4859 9.6555 17.6109 7.9433 17.2917 6.19932C17.1555 5.45449 16.9434 4.73465 16.6376 4.04659C16.5193 3.7809 16.2872 3.61513 16.0193 3.53339C15.4501 3.35853 14.796 3.85811 14.767 4.56888C14.7291 5.47493 14.5505 6.35828 14.2759 7.22119C13.8429 8.57686 13.1509 9.78266 12.2223 10.8454C11.7446 11.3904 11.1999 11.8673 10.6128 12.2828C10.0503 12.6825 9.44092 13.0095 8.8025 13.2638C8.38284 13.4319 7.94533 13.5704 7.50334 13.6703C6.59483 13.8747 5.67068 13.9246 4.74654 13.7906C4.27777 13.7225 3.8157 13.5976 3.34916 13.5023C3.30229 13.4932 3.21523 13.4773 3.2063 13.4954C3.1304 13.6499 3.02772 13.8088 3.01433 13.9723C2.99647 14.1994 3.04558 14.4333 3.0746 14.6626C3.08353 14.7308 3.10139 14.8125 3.14603 14.8557C3.42952 15.1282 3.69962 15.4211 4.0166 15.6482C4.48537 15.9865 4.97423 16.2999 5.48094 16.5747C5.84703 16.7745 6.24883 16.9198 6.64617 17.047C7.39843 17.2854 8.17301 17.3922 9.21323 17.3853L9.20877 17.3831ZM15.4032 2.90437H16.0148C16.093 2.12548 16.1711 1.35568 16.2515 0.579057H15.1644C15.2447 1.35795 15.3228 2.12321 15.4032 2.90437Z" fill="#FFED1D"/>
<path d="M16.3522 8.65462C16.5308 8.6637 16.6982 8.67278 16.8924 8.68414C16.7183 10.9277 15.908 12.8533 14.3588 14.4838C14.2271 14.3294 14.1088 14.1909 13.9883 14.0478C15.4258 12.5354 16.1803 10.7415 16.35 8.65234L16.3522 8.65462Z" fill="#FFED1D"/>
</svg>
