<svg width="360" height="403" viewBox="0 0 360 403" fill="none" xmlns="http://www.w3.org/2000/svg">
<rect y="3" width="360" height="400" rx="20" fill="#020039"/>
<rect x="1" y="4" width="358" height="398" rx="19" stroke="url(#paint0_linear_1478_6744)" stroke-opacity="0.5" stroke-width="2"/>
<g filter="url(#filter0_d_1478_6744)">
<path d="M213.14 34.3801C230.813 44.5974 229.176 66.1115 212 74.8252C194.327 85.0424 165.673 85.0424 148 74.8252C129.954 64.9535 129.165 44.8291 146.838 34.6118C164.511 24.3945 195.467 24.1629 213.14 34.3801Z" fill="#F9C53A"/>
</g>
<circle cx="36.9628" cy="36.9628" r="36.4628" transform="matrix(0.865735 -0.500503 0.865735 0.500503 116 52)" fill="#FED745" stroke="url(#paint1_linear_1478_6744)"/>
<g filter="url(#filter1_b_1478_6744)">
<g filter="url(#filter2_d_1478_6744)">
<rect width="38.3126" height="38.3126" rx="19.1563" transform="matrix(0.865734 -0.500505 0.865734 0.500505 147.36 49.5557)" fill="white" fill-opacity="0.5" shape-rendering="crispEdges"/>
<rect x="0.51944" width="37.7126" height="37.7126" rx="18.8563" transform="matrix(0.865734 -0.500505 0.865734 0.500505 147.43 49.8156)" stroke="url(#paint2_linear_1478_6744)" stroke-width="0.6" shape-rendering="crispEdges"/>
</g>
<rect x="0.51944" width="37.7126" height="37.7126" rx="18.8563" transform="matrix(0.865734 -0.500505 0.865734 0.500505 147.43 47.2531)" fill="url(#paint3_linear_1478_6744)" stroke="url(#paint4_linear_1478_6744)" stroke-width="0.6"/>
</g>
<g filter="url(#filter3_d_1478_6744)">
<g filter="url(#filter4_d_1478_6744)">
<path d="M186.024 52.4032C185.731 52.5213 185.437 52.6336 185.148 52.7607C185.037 52.8085 184.944 52.8134 184.831 52.7776C184.606 52.7075 184.377 52.652 184.142 52.5886C184.146 52.2896 184.165 51.9988 184.149 51.7089C184.131 51.373 184.104 51.0341 184.039 50.7055C183.961 50.3123 183.857 49.9242 183.739 49.5408C183.391 48.4054 182.706 47.486 181.847 46.6952C181.519 46.3942 181.145 46.1364 180.765 45.904C180.301 45.6215 179.802 45.3952 179.283 45.2378C178.642 45.0415 177.987 44.9122 177.314 44.895C177.258 44.894 177.203 44.886 177.131 44.8779C177.135 44.7495 177.13 44.6225 177.148 44.5007C177.154 44.4629 177.223 44.4067 177.264 44.4082C177.44 44.4089 177.618 44.4155 177.792 44.4409C178.312 44.5125 178.827 44.5944 179.33 44.7561C179.836 44.9183 180.329 45.0964 180.784 45.3733C181.084 45.556 181.379 45.7447 181.672 45.9373C182.505 46.4853 183.109 47.2493 183.619 48.0864C183.86 48.4823 184.053 48.9118 184.22 49.3436C184.358 49.7028 184.463 50.084 184.519 50.4638C184.597 50.989 184.618 51.525 184.66 52.0566C184.665 52.1058 184.649 52.1546 184.647 52.1874C184.948 52.4022 185.203 52.2 185.472 52.1083C185.679 52.0394 185.825 51.9117 185.91 51.7112C186.067 51.3341 186.246 50.9624 186.374 50.5749C186.508 50.1691 186.594 49.7469 186.703 49.3326C186.707 49.318 186.716 49.307 186.729 49.2814C186.88 49.3016 187.032 49.3218 187.196 49.3455C187.147 49.5647 187.097 49.7878 187.048 50.0125C186.887 50.7647 186.584 51.4622 186.227 52.1381C186.194 52.2018 186.159 52.2667 186.123 52.3327C186.09 52.3562 186.057 52.3797 186.024 52.4032Z" fill="url(#paint5_linear_1478_6744)" fill-opacity="0.68" shape-rendering="crispEdges"/>
</g>
<g filter="url(#filter5_d_1478_6744)">
<path d="M172.127 46.8206L170.978 45.1997C171.235 45.052 171.485 44.91 171.735 44.7679C172.237 44.4842 172.74 44.2006 173.239 43.9122C173.275 43.8907 173.313 43.8263 173.311 43.7845C173.294 43.4861 173.406 43.2263 173.557 42.9857C174.276 41.8484 175.201 40.911 176.33 40.1818C177.093 39.6886 177.913 39.3119 178.794 39.0702C179.375 38.9109 179.962 38.8039 180.564 38.7674C181.079 38.7356 181.59 38.7447 182.102 38.8095C182.74 38.89 183.358 39.0338 183.96 39.2623C184.508 39.4704 185.018 39.7414 185.512 40.0569C186.063 40.4098 186.527 40.8506 186.945 41.3432C187.186 41.6269 187.443 41.9064 187.629 42.225C187.966 42.8038 188.274 43.4053 188.458 44.0551C188.547 44.3685 188.636 44.6873 188.669 45.0105C188.723 45.5455 188.757 46.0837 188.755 46.6215C188.752 46.9913 188.672 47.3607 188.621 47.7292C188.614 47.7793 188.589 47.8375 188.551 47.8713C188.286 48.1147 188.018 48.3523 187.746 48.5862C187.708 48.6201 187.647 48.6401 187.595 48.6438C187.358 48.6674 187.122 48.6814 186.887 48.7039C186.802 48.7117 186.766 48.6806 186.734 48.5989C186.579 48.1994 186.406 47.8053 186.251 47.4058C186.013 46.7898 185.615 46.2784 185.172 45.808C184.849 45.466 184.482 45.1554 184.101 44.8785C183.592 44.5077 183.032 44.2157 182.436 44.0063C182.038 43.8667 181.627 43.7511 181.213 43.6753C180.28 43.5043 179.34 43.4988 178.403 43.667C177.538 43.8224 176.718 44.109 175.939 44.5205C175.658 44.6683 175.381 44.8294 175.094 44.9623C174.86 45.0696 174.603 45.0954 174.354 45.0239C174.222 44.9848 174.142 45.0323 174.057 45.1067C173.663 45.4558 173.27 45.8039 172.875 46.1514C172.629 46.369 172.382 46.5851 172.124 46.8132L172.127 46.8206ZM186.858 42.0262C186.524 41.5922 186.03 41.0214 185.388 40.5837C184.863 40.2284 184.329 39.9018 183.726 39.7092C183.33 39.5825 182.926 39.4763 182.522 39.3745C181.98 39.2381 181.425 39.2244 180.87 39.2327C180.163 39.2445 179.472 39.3561 178.798 39.5579C177.354 39.9895 176.104 40.7454 175.055 41.8308C174.607 42.2942 174.214 42.799 173.89 43.3542C173.765 43.5688 173.766 43.8145 173.844 44.0441C174.007 44.5324 174.681 44.748 175.189 44.4181C175.836 43.9982 176.538 43.6888 177.274 43.4572C178.431 43.0947 179.614 42.989 180.816 43.1209C181.433 43.1897 182.036 43.3393 182.618 43.5491C183.177 43.7494 183.709 44.0186 184.205 44.3442C184.532 44.5578 184.847 44.7986 185.138 45.0615C185.735 45.6025 186.232 46.2307 186.602 46.9495C186.79 47.3143 186.935 47.7022 187.102 48.0788C187.119 48.1164 187.152 48.1858 187.169 48.1831C187.314 48.1606 187.476 48.1547 187.596 48.0836C187.762 47.9842 187.9 47.8342 188.044 47.7006C188.087 47.6607 188.135 47.6078 188.142 47.555C188.189 47.2204 188.257 46.8852 188.256 46.5493C188.256 46.0513 188.228 45.5515 188.165 45.0581C188.12 44.7009 188.019 44.3455 187.909 44.0021C187.697 43.3531 187.383 42.7533 186.857 42.0219L186.858 42.0262ZM173.716 44.7894L173.41 44.3574C172.83 44.6862 172.258 45.0106 171.679 45.3367L172.223 46.1047C172.723 45.6638 173.215 45.2313 173.716 44.7894Z" fill="url(#paint6_linear_1478_6744)" fill-opacity="0.68" shape-rendering="crispEdges"/>
</g>
<g filter="url(#filter6_d_1478_6744)">
<path d="M177.227 41.2841C177.144 41.1535 177.066 41.0307 176.977 40.888C178.62 39.9047 180.361 39.5276 182.267 39.818C182.226 39.9872 182.189 40.1391 182.15 40.2948C180.382 40.025 178.76 40.3766 177.226 41.2868L177.227 41.2841Z" fill="url(#paint7_linear_1478_6744)" fill-opacity="0.68" shape-rendering="crispEdges"/>
</g>
</g>
<path d="M141.32 101.264V115.408H139.592V107.76H136.712V111.984H129.992V102.352H131.752V105.872H135.016V102.352H136.712V106.32H139.592V101.264H141.32ZM131.752 110.576H135.016V107.248H131.752V110.576ZM155.436 101.264V115.376H153.74V108.24H152.204V114.672H150.572V101.552H152.204V106.832H153.74V101.264H155.436ZM143.916 111.856V102.896H145.644V110.352C146.86 110.32 148.204 110.224 149.676 109.936L149.868 111.44C147.948 111.776 146.332 111.872 144.844 111.856H143.916ZM168.976 101.264V115.408H167.248V107.152H163.216V105.744H167.248V101.264H168.976ZM157.872 112.048V102.8H159.6V110.608C161.504 110.576 163.392 110.432 165.392 110.032L165.584 111.472C163.296 111.936 161.2 112.064 159.024 112.048H157.872ZM187.641 108.112V109.488H182.041V110.624C184.601 110.784 186.073 111.6 186.073 113.008C186.073 114.528 184.265 115.376 181.177 115.376C178.089 115.376 176.265 114.528 176.249 113.008C176.265 111.6 177.753 110.784 180.313 110.624V109.488H174.777V108.112H187.641ZM175.385 106.256C178.281 106.032 179.929 105.104 180.185 103.952H176.025V102.576H180.313V101.296H182.041V102.576H186.361V103.952H182.169C182.425 105.104 184.105 106.032 187.001 106.256L186.457 107.568C183.945 107.36 182.073 106.576 181.193 105.36C180.297 106.576 178.425 107.36 175.897 107.568L175.385 106.256ZM178.041 113.008C178.025 113.712 179.113 114.08 181.177 114.064C183.225 114.08 184.329 113.712 184.345 113.008C184.329 112.272 183.225 111.904 181.177 111.92C179.113 111.904 178.025 112.272 178.041 113.008ZM200.413 101.296V111.6H198.685V106.416H196.189V105.008H198.685V101.296H200.413ZM188.573 108.528C190.813 107.808 192.013 105.952 192.029 104.08V103.696H189.085V102.288H196.701V103.696H193.789V104.08C193.789 105.792 194.925 107.552 197.117 108.272L196.221 109.648C194.653 109.12 193.533 108.032 192.925 106.704C192.301 108.176 191.133 109.36 189.469 109.936L188.573 108.528ZM191.165 115.12V110.704H192.893V113.712H200.765V115.12H191.165ZM213.473 101.264V106.896H215.649V108.336H213.473V115.376H211.777V101.264H213.473ZM202.337 104.848V103.44H205.697V101.456H207.425V103.44H210.689V104.848H202.337ZM203.009 109.072C202.993 107.12 204.497 105.744 206.561 105.744C208.593 105.744 210.097 107.12 210.113 109.072C210.097 111.024 208.593 112.384 206.561 112.4C204.497 112.384 202.993 111.024 203.009 109.072ZM204.673 109.072C204.657 110.224 205.457 110.96 206.561 110.96C207.649 110.96 208.433 110.224 208.449 109.072C208.433 107.92 207.649 107.168 206.561 107.184C205.457 107.168 204.657 107.92 204.673 109.072ZM228.037 101.264V115.376H226.277V101.264H228.037ZM216.357 111.504C220.037 109.744 221.749 107.36 222.069 104.144H217.061V102.768H223.845C223.829 106.976 222.197 110.544 217.253 112.88L216.357 111.504Z" fill="#EBEBFF"/>
<path d="M127.53 128.212V136H126.562V129.224H126.518L124.626 130.478V129.51L126.562 128.212H127.53ZM137.413 127.332V136.88H136.599V131.864H135.257V136.396H134.465V127.574H135.257V131.182H136.599V127.332H137.413ZM129.273 134.218C131.495 132.975 132.419 131.237 132.551 129.268H129.647V128.564H133.365C133.365 130.995 132.518 133.283 129.757 134.812L129.273 134.218ZM148.988 127.332V129.818H150.418V130.522H148.988V133.03H148.152V127.332H148.988ZM141.97 132.238V128.058H146.194V128.762H142.784V131.556C144.72 131.545 145.831 131.49 147.118 131.226L147.206 131.93C145.864 132.183 144.72 132.238 142.696 132.238H141.97ZM142.762 135.032C142.762 133.877 143.972 133.217 145.93 133.206C147.877 133.217 149.076 133.877 149.076 135.032C149.076 136.187 147.877 136.847 145.93 136.858C143.972 136.847 142.762 136.187 142.762 135.032ZM143.598 135.032C143.587 135.736 144.489 136.165 145.93 136.176C147.36 136.165 148.262 135.736 148.262 135.032C148.262 134.317 147.36 133.899 145.93 133.91C144.489 133.899 143.587 134.317 143.598 135.032ZM156.405 127.904C157.219 127.893 157.912 128.201 158.352 128.718H160.849V127.332H161.685V132.986H160.849V131.622H158.341C157.89 132.117 157.208 132.425 156.405 132.414C154.975 132.425 153.919 131.49 153.941 130.17C153.919 128.828 154.975 127.893 156.405 127.904ZM154.733 130.17C154.733 131.05 155.437 131.71 156.405 131.71C157.351 131.71 158.066 131.05 158.055 130.17C158.066 129.257 157.351 128.619 156.405 128.63C155.437 128.619 154.733 129.257 154.733 130.17ZM155.327 135.032C155.316 133.877 156.548 133.206 158.517 133.206C160.497 133.206 161.729 133.877 161.729 135.032C161.729 136.187 160.497 136.847 158.517 136.858C156.548 136.847 155.316 136.187 155.327 135.032ZM156.163 135.032C156.152 135.747 157.065 136.176 158.517 136.176C159.991 136.176 160.904 135.747 160.915 135.032C160.904 134.295 159.991 133.866 158.517 133.866C157.065 133.866 156.152 134.295 156.163 135.032ZM158.748 129.4C158.825 129.631 158.869 129.895 158.869 130.17C158.869 130.434 158.825 130.687 158.748 130.918H160.849V129.4H158.748ZM166.484 128.872C166.473 130.17 167.463 131.358 168.838 131.82L168.398 132.502C167.342 132.117 166.495 131.325 166.088 130.324C165.681 131.457 164.823 132.337 163.712 132.766L163.25 132.084C164.68 131.556 165.637 130.28 165.648 128.806V127.816H166.484V128.872ZM164.526 135.12C164.526 134.02 165.725 133.382 167.694 133.382C169.652 133.382 170.84 134.02 170.84 135.12C170.84 136.22 169.652 136.847 167.694 136.858C165.725 136.847 164.526 136.22 164.526 135.12ZM165.362 135.12C165.362 135.791 166.253 136.176 167.694 136.176C169.135 136.176 170.015 135.791 170.026 135.12C170.015 134.46 169.135 134.053 167.694 134.064C166.253 134.053 165.362 134.46 165.362 135.12ZM169.916 133.14V127.332H170.752V129.818H172.182V130.522H170.752V133.14H169.916ZM182.943 127.332V131.094H184.527V131.798H182.943V136.88H182.085V127.332H182.943ZM175.969 134.504V128.256H180.413V128.96H176.805V133.778C178.532 133.778 179.753 133.712 181.161 133.448L181.271 134.174C179.786 134.438 178.532 134.493 176.717 134.504H175.969ZM193.77 132.172V132.876H189.898V134.834H189.062V132.876H185.036V132.172H193.77ZM186.026 129.488C186.026 128.3 187.357 127.574 189.392 127.574C191.438 127.574 192.758 128.3 192.758 129.488C192.758 130.665 191.438 131.391 189.392 131.402C187.357 131.391 186.026 130.665 186.026 129.488ZM186.158 136.66V133.866H187.016V135.956H192.802V136.66H186.158ZM186.928 129.488C186.917 130.236 187.918 130.709 189.392 130.698C190.888 130.709 191.867 130.236 191.878 129.488C191.867 128.729 190.888 128.256 189.392 128.256C187.918 128.256 186.917 128.729 186.928 129.488ZM203.298 134.966V135.692H194.564V134.966H198.48V133.184H195.642V130.236H201.362V128.74H195.62V128.036H202.198V130.918H196.478V132.48H202.418V133.184H199.316V134.966H203.298ZM211.771 131.908V132.612H205.171V128.212H211.683V128.916H206.007V131.908H211.771ZM204.071 135.56V134.856H212.805V135.56H204.071ZM223.72 127.332V131.204H225.26V131.93H223.72V136.858H222.862V127.332H223.72ZM216.372 134.394C218.847 133.162 220.2 131.325 220.376 129.048H216.834V128.344H221.234C221.234 131.05 219.969 133.514 216.856 135.054L216.372 134.394ZM233.535 129.994V130.698H227.023V127.508H227.859V129.994H233.535ZM225.835 132.502V131.798H234.547V132.502H225.835ZM226.869 135.098C226.88 133.987 228.112 133.36 230.169 133.36C232.226 133.36 233.458 133.987 233.469 135.098C233.458 136.209 232.226 136.825 230.169 136.836C228.112 136.825 226.88 136.209 226.869 135.098ZM227.727 135.098C227.727 135.769 228.64 136.165 230.169 136.176C231.687 136.165 232.611 135.769 232.611 135.098C232.611 134.416 231.687 134.042 230.169 134.042C228.64 134.042 227.727 134.416 227.727 135.098Z" fill="#EBEBFF"/>
<defs>
<filter id="filter0_d_1478_6744" x="76.6146" y="0.43203" width="188.445" height="152.456" filterUnits="userSpaceOnUse" color-interpolation-filters="sRGB">
<feFlood flood-opacity="0" result="BackgroundImageFix"/>
<feColorMatrix in="SourceAlpha" type="matrix" values="0 0 0 0 0 0 0 0 0 0 0 0 0 0 0 0 0 0 127 0" result="hardAlpha"/>
<feOffset dx="-9" dy="22"/>
<feGaussianBlur stdDeviation="24.2"/>
<feComposite in2="hardAlpha" operator="out"/>
<feColorMatrix type="matrix" values="0 0 0 0 1 0 0 0 0 0.816315 0 0 0 0 0.343982 0 0 0 0.88 0"/>
<feBlend mode="normal" in2="BackgroundImageFix" result="effect1_dropShadow_1478_6744"/>
<feBlend mode="normal" in="SourceGraphic" in2="effect1_dropShadow_1478_6744" result="shape"/>
</filter>
<filter id="filter1_b_1478_6744" x="124.958" y="1.31658" width="111.141" height="93.9157" filterUnits="userSpaceOnUse" color-interpolation-filters="sRGB">
<feFlood flood-opacity="0" result="BackgroundImageFix"/>
<feGaussianBlur in="BackgroundImageFix" stdDeviation="16.0585"/>
<feComposite in2="SourceAlpha" operator="in" result="effect1_backgroundBlur_1478_6744"/>
<feBlend mode="normal" in="SourceGraphic" in2="effect1_backgroundBlur_1478_6744" result="shape"/>
</filter>
<filter id="filter2_d_1478_6744" x="131.975" y="17.8961" width="97.1072" height="77.3191" filterUnits="userSpaceOnUse" color-interpolation-filters="sRGB">
<feFlood flood-opacity="0" result="BackgroundImageFix"/>
<feColorMatrix in="SourceAlpha" type="matrix" values="0 0 0 0 0 0 0 0 0 0 0 0 0 0 0 0 0 0 127 0" result="hardAlpha"/>
<feMorphology radius="11" operator="dilate" in="SourceAlpha" result="effect1_dropShadow_1478_6744"/>
<feOffset dy="7"/>
<feGaussianBlur stdDeviation="7.05"/>
<feComposite in2="hardAlpha" operator="out"/>
<feColorMatrix type="matrix" values="0 0 0 0 0.987959 0 0 0 0 0.734945 0 0 0 0 0 0 0 0 1 0"/>
<feBlend mode="normal" in2="BackgroundImageFix" result="effect1_dropShadow_1478_6744"/>
<feBlend mode="normal" in="SourceGraphic" in2="effect1_dropShadow_1478_6744" result="shape"/>
</filter>
<filter id="filter3_d_1478_6744" x="166.978" y="38.75" width="25.7773" height="22.0508" filterUnits="userSpaceOnUse" color-interpolation-filters="sRGB">
<feFlood flood-opacity="0" result="BackgroundImageFix"/>
<feColorMatrix in="SourceAlpha" type="matrix" values="0 0 0 0 0 0 0 0 0 0 0 0 0 0 0 0 0 0 127 0" result="hardAlpha"/>
<feOffset dy="4"/>
<feGaussianBlur stdDeviation="2"/>
<feComposite in2="hardAlpha" operator="out"/>
<feColorMatrix type="matrix" values="0 0 0 0 0.988235 0 0 0 0 0.741176 0 0 0 0 0.0196078 0 0 0 1 0"/>
<feBlend mode="normal" in2="BackgroundImageFix" result="effect1_dropShadow_1478_6744"/>
<feBlend mode="normal" in="SourceGraphic" in2="effect1_dropShadow_1478_6744" result="shape"/>
</filter>
<filter id="filter4_d_1478_6744" x="171.531" y="42.8082" width="19.2645" height="17.5926" filterUnits="userSpaceOnUse" color-interpolation-filters="sRGB">
<feFlood flood-opacity="0" result="BackgroundImageFix"/>
<feColorMatrix in="SourceAlpha" type="matrix" values="0 0 0 0 0 0 0 0 0 0 0 0 0 0 0 0 0 0 127 0" result="hardAlpha"/>
<feMorphology radius="1" operator="dilate" in="SourceAlpha" result="effect1_dropShadow_1478_6744"/>
<feOffset dx="-1" dy="3"/>
<feGaussianBlur stdDeviation="1.8"/>
<feComposite in2="hardAlpha" operator="out"/>
<feColorMatrix type="matrix" values="0 0 0 0 0 0 0 0 0 0 0 0 0 0 0 0 0 0 0.25 0"/>
<feBlend mode="normal" in2="BackgroundImageFix" result="effect1_dropShadow_1478_6744"/>
<feBlend mode="normal" in="SourceGraphic" in2="effect1_dropShadow_1478_6744" result="shape"/>
</filter>
<filter id="filter5_d_1478_6744" x="165.378" y="37.15" width="26.9773" height="19.1551" filterUnits="userSpaceOnUse" color-interpolation-filters="sRGB">
<feFlood flood-opacity="0" result="BackgroundImageFix"/>
<feColorMatrix in="SourceAlpha" type="matrix" values="0 0 0 0 0 0 0 0 0 0 0 0 0 0 0 0 0 0 127 0" result="hardAlpha"/>
<feMorphology radius="1" operator="dilate" in="SourceAlpha" result="effect1_dropShadow_1478_6744"/>
<feOffset dx="-1" dy="3"/>
<feGaussianBlur stdDeviation="1.8"/>
<feComposite in2="hardAlpha" operator="out"/>
<feColorMatrix type="matrix" values="0 0 0 0 0 0 0 0 0 0 0 0 0 0 0 0 0 0 0.25 0"/>
<feBlend mode="normal" in2="BackgroundImageFix" result="effect1_dropShadow_1478_6744"/>
<feBlend mode="normal" in="SourceGraphic" in2="effect1_dropShadow_1478_6744" result="shape"/>
</filter>
<filter id="filter6_d_1478_6744" x="171.377" y="38.1227" width="14.49" height="10.7645" filterUnits="userSpaceOnUse" color-interpolation-filters="sRGB">
<feFlood flood-opacity="0" result="BackgroundImageFix"/>
<feColorMatrix in="SourceAlpha" type="matrix" values="0 0 0 0 0 0 0 0 0 0 0 0 0 0 0 0 0 0 127 0" result="hardAlpha"/>
<feMorphology radius="1" operator="dilate" in="SourceAlpha" result="effect1_dropShadow_1478_6744"/>
<feOffset dx="-1" dy="3"/>
<feGaussianBlur stdDeviation="1.8"/>
<feComposite in2="hardAlpha" operator="out"/>
<feColorMatrix type="matrix" values="0 0 0 0 0 0 0 0 0 0 0 0 0 0 0 0 0 0 0.25 0"/>
<feBlend mode="normal" in2="BackgroundImageFix" result="effect1_dropShadow_1478_6744"/>
<feBlend mode="normal" in="SourceGraphic" in2="effect1_dropShadow_1478_6744" result="shape"/>
</filter>
<linearGradient id="paint0_linear_1478_6744" x1="290.513" y1="202.577" x2="69.9558" y2="202.577" gradientUnits="userSpaceOnUse">
<stop offset="0.00170068" stop-color="#0057FF" stop-opacity="0.2"/>
<stop offset="0.47" stop-color="#0057FF" stop-opacity="0.8"/>
<stop offset="1" stop-color="#0057FF" stop-opacity="0.2"/>
</linearGradient>
<linearGradient id="paint1_linear_1478_6744" x1="6.40542" y1="30.0697" x2="38.8603" y2="60.5089" gradientUnits="userSpaceOnUse">
<stop stop-color="white" stop-opacity="0.43"/>
<stop offset="0.846595" stop-color="white" stop-opacity="0.44"/>
<stop offset="1" stop-color="white" stop-opacity="0"/>
</linearGradient>
<linearGradient id="paint2_linear_1478_6744" x1="4.62414" y1="16.7841" x2="22.1143" y2="33.3349" gradientUnits="userSpaceOnUse">
<stop stop-color="white" stop-opacity="0.09"/>
<stop offset="0.846595" stop-color="white" stop-opacity="0.79"/>
<stop offset="1" stop-color="white" stop-opacity="0.17"/>
</linearGradient>
<linearGradient id="paint3_linear_1478_6744" x1="28.9462" y1="2.15749" x2="-0.0229368" y2="20.3871" gradientUnits="userSpaceOnUse">
<stop stop-color="#FDC317"/>
<stop offset="1" stop-color="white"/>
</linearGradient>
<linearGradient id="paint4_linear_1478_6744" x1="4.62414" y1="16.7841" x2="22.1143" y2="33.3349" gradientUnits="userSpaceOnUse">
<stop stop-color="white" stop-opacity="0.09"/>
<stop offset="0.846595" stop-color="white" stop-opacity="0.79"/>
<stop offset="1" stop-color="white" stop-opacity="0.17"/>
</linearGradient>
<linearGradient id="paint5_linear_1478_6744" x1="179.237" y1="42.9854" x2="187.836" y2="46.2589" gradientUnits="userSpaceOnUse">
<stop stop-color="white"/>
<stop offset="1" stop-color="white"/>
</linearGradient>
<linearGradient id="paint6_linear_1478_6744" x1="176.641" y1="39.9487" x2="186.29" y2="47.6717" gradientUnits="userSpaceOnUse">
<stop stop-color="white"/>
<stop offset="1" stop-color="white"/>
</linearGradient>
<linearGradient id="paint7_linear_1478_6744" x1="178.976" y1="39.466" x2="180.642" y2="41.1472" gradientUnits="userSpaceOnUse">
<stop stop-color="white"/>
<stop offset="1" stop-color="white"/>
</linearGradient>
</defs>
</svg>
