<svg width="32" height="32" viewBox="0 0 32 32" fill="none" xmlns="http://www.w3.org/2000/svg">
<circle cx="16" cy="16" r="16" fill="#5783FF"/>
<path d="M11.4694 11.5306C11.3286 11.3899 11.2496 11.199 11.2496 11C11.2496 10.801 11.3286 10.6101 11.4694 10.4694C11.6101 10.3286 11.801 10.2496 12 10.2496C12.199 10.2496 12.3899 10.3286 12.5306 10.4694L15.75 13.6897V5.75C15.75 5.55109 15.829 5.36032 15.9697 5.21967C16.1103 5.07902 16.3011 5 16.5 5C16.6989 5 16.8897 5.07902 17.0303 5.21967C17.171 5.36032 17.25 5.55109 17.25 5.75V13.6897L20.4694 10.4694C20.6101 10.3286 20.801 10.2496 21 10.2496C21.199 10.2496 21.3899 10.3286 21.5306 10.4694C21.6714 10.6101 21.7504 10.801 21.7504 11C21.7504 11.199 21.6714 11.3899 21.5306 11.5306L17.0306 16.0306C16.961 16.1004 16.8783 16.1557 16.7872 16.1934C16.6962 16.2312 16.5986 16.2506 16.5 16.2506C16.4014 16.2506 16.3038 16.2312 16.2128 16.1934C16.1217 16.1557 16.039 16.1004 15.9694 16.0306L11.4694 11.5306ZM27 16.25V22.25C27 22.6478 26.842 23.0294 26.5607 23.3107C26.2794 23.592 25.8978 23.75 25.5 23.75H7.5C7.10218 23.75 6.72064 23.592 6.43934 23.3107C6.15804 23.0294 6 22.6478 6 22.25V16.25C6 15.8522 6.15804 15.4706 6.43934 15.1893C6.72064 14.908 7.10218 14.75 7.5 14.75H12.4125C12.4618 14.75 12.5105 14.7596 12.5561 14.7784C12.6016 14.7973 12.643 14.8249 12.6778 14.8597L14.9062 17.0938C15.1153 17.3035 15.3637 17.4699 15.6372 17.5835C15.9107 17.6971 16.2039 17.7555 16.5 17.7555C16.7961 17.7555 17.0893 17.6971 17.3628 17.5835C17.6363 17.4699 17.8847 17.3035 18.0938 17.0938L20.325 14.8625C20.3942 14.7918 20.4886 14.7514 20.5875 14.75H25.5C25.8978 14.75 26.2794 14.908 26.5607 15.1893C26.842 15.4706 27 15.8522 27 16.25ZM23.25 19.25C23.25 19.0275 23.184 18.81 23.0604 18.625C22.9368 18.44 22.7611 18.2958 22.5555 18.2106C22.35 18.1255 22.1238 18.1032 21.9055 18.1466C21.6873 18.19 21.4868 18.2972 21.3295 18.4545C21.1722 18.6118 21.065 18.8123 21.0216 19.0305C20.9782 19.2488 21.0005 19.475 21.0856 19.6805C21.1708 19.8861 21.315 20.0618 21.5 20.1854C21.685 20.309 21.9025 20.375 22.125 20.375C22.4234 20.375 22.7095 20.2565 22.9205 20.0455C23.1315 19.8345 23.25 19.5484 23.25 19.25Z" fill="#B9CBFF"/>
</svg>
