<svg width="32" height="32" viewBox="0 0 32 32" fill="none" xmlns="http://www.w3.org/2000/svg">
<circle cx="16" cy="16" r="16" fill="#F9D75D"/>
<path d="M21.5 12.6472V12.125C21.5 9.77375 17.9534 8 13.25 8C8.54656 8 5 9.77375 5 12.125V15.875C5 17.8334 7.46094 19.3897 11 19.8556V20.375C11 22.7262 14.5466 24.5 19.25 24.5C23.9534 24.5 27.5 22.7262 27.5 20.375V16.625C27.5 14.6844 25.1169 13.1262 21.5 12.6472ZM9.5 18.0191C7.66344 17.5062 6.5 16.6616 6.5 15.875V14.5559C7.265 15.0978 8.28969 15.5347 9.5 15.8281V18.0191ZM17 15.8281C18.2103 15.5347 19.235 15.0978 20 14.5559V15.875C20 16.6616 18.8366 17.5062 17 18.0191V15.8281ZM15.5 22.5191C13.6634 22.0062 12.5 21.1616 12.5 20.375V19.9841C12.7466 19.9934 12.9959 20 13.25 20C13.6138 20 13.9691 19.9878 14.3178 19.9672C14.7052 20.1059 15.0999 20.2236 15.5 20.3197V22.5191ZM15.5 18.3359C14.7551 18.446 14.003 18.5008 13.25 18.5C12.497 18.5008 11.7449 18.446 11 18.3359V16.1056C11.746 16.2028 12.4977 16.2511 13.25 16.25C14.0023 16.2511 14.754 16.2028 15.5 16.1056V18.3359ZM21.5 22.8359C20.008 23.0547 18.492 23.0547 17 22.8359V20.6C17.7458 20.7003 18.4975 20.7504 19.25 20.75C20.0023 20.7511 20.754 20.7028 21.5 20.6056V22.8359ZM26 20.375C26 21.1616 24.8366 22.0062 23 22.5191V20.3281C24.2103 20.0347 25.235 19.5978 26 19.0559V20.375Z" fill="#B5900F"/>
</svg>
