<svg width="32" height="32" viewBox="0 0 32 32" fill="none" xmlns="http://www.w3.org/2000/svg">
<circle cx="16" cy="16" r="16" fill="#4FBEB7"/>
<path d="M24 8H7.5C7.10218 8 6.72064 8.15804 6.43934 8.43934C6.15804 8.72064 6 9.10218 6 9.5V23C6 23.3978 6.15804 23.7794 6.43934 24.0607C6.72064 24.342 7.10218 24.5 7.5 24.5H24C24.3978 24.5 24.7794 24.342 25.0607 24.0607C25.342 23.7794 25.5 23.3978 25.5 23V9.5C25.5 9.10218 25.342 8.72064 25.0607 8.43934C24.7794 8.15804 24.3978 8 24 8ZM22.9012 18.9012C22.2007 19.6018 21.2515 19.9967 20.2608 19.9997C19.2701 20.0027 18.3185 19.6135 17.6138 18.9172L12.8709 14.6881L12.8438 14.6562C12.5288 14.3424 12.1278 14.1288 11.6916 14.0427C11.2554 13.9565 10.8034 14.0015 10.3927 14.172C9.982 14.3425 9.63106 14.6309 9.38418 15.0008C9.13729 15.3706 9.00552 15.8053 9.00552 16.25C9.00552 16.6947 9.13729 17.1294 9.38418 17.4992C9.63106 17.8691 9.982 18.1575 10.3927 18.328C10.8034 18.4985 11.2554 18.5435 11.6916 18.4573C12.1278 18.3712 12.5288 18.1576 12.8438 17.8438C12.8775 17.81 12.9103 17.7753 12.9375 17.7406C13.0028 17.6668 13.0819 17.6065 13.1705 17.5632C13.259 17.5199 13.3552 17.4945 13.4536 17.4884C13.552 17.4823 13.6506 17.4957 13.7438 17.5277C13.837 17.5597 13.923 17.6097 13.9969 17.675C14.0707 17.7403 14.131 17.8194 14.1743 17.908C14.2176 17.9965 14.243 18.0927 14.2491 18.1911C14.2552 18.2895 14.2418 18.3881 14.2098 18.4813C14.1778 18.5745 14.1278 18.6605 14.0625 18.7344C14.0109 18.7925 13.9566 18.8497 13.9022 18.9041C13.3785 19.4279 12.7113 19.785 11.9849 19.9301C11.2585 20.0752 10.5054 20.002 9.82054 19.7196C9.13572 19.4372 8.54988 18.9582 8.13693 18.3433C7.72398 17.7283 7.50242 17.0048 7.5002 16.264C7.49798 15.5232 7.7152 14.7984 8.12446 14.181C8.53372 13.5635 9.11668 13.0811 9.79979 12.7946C10.4829 12.5081 11.2356 12.4303 11.9628 12.5711C12.6901 12.7119 13.3594 13.0649 13.8863 13.5856L18.6281 17.8147L18.6591 17.8438C18.9743 18.1574 19.3754 18.3705 19.8118 18.4563C20.2481 18.5421 20.7 18.4967 21.1106 18.3258C21.5211 18.1549 21.8718 17.8662 22.1183 17.4962C22.3649 17.1261 22.4963 16.6913 22.4959 16.2466C22.4955 15.8019 22.3633 15.3674 22.1161 14.9977C21.8689 14.6281 21.5177 14.34 21.1069 14.1699C20.6961 13.9997 20.244 13.9551 19.8079 14.0416C19.3717 14.1282 18.971 14.3421 18.6562 14.6562C18.6225 14.69 18.5906 14.7237 18.5625 14.7594C18.4308 14.9086 18.2453 14.9993 18.0467 15.0117C17.8482 15.0241 17.6528 14.9571 17.5036 14.8255C17.3544 14.6938 17.2636 14.5083 17.2512 14.3097C17.2388 14.1111 17.3058 13.9157 17.4375 13.7666C17.4881 13.7084 17.5425 13.6503 17.5978 13.5959C18.3036 12.9056 19.2532 12.5215 20.2405 12.5269C21.2278 12.5324 22.1731 12.9269 22.8713 13.625C23.5695 14.323 23.9642 15.2683 23.9698 16.2556C23.9754 17.2428 23.5915 18.1925 22.9012 18.8984V18.9012Z" fill="#C7F6F4"/>
</svg>
