<svg width="32" height="32" viewBox="0 0 32 32" fill="none" xmlns="http://www.w3.org/2000/svg">
<circle cx="16" cy="16" r="16" fill="#FFC1A9"/>
<path d="M25 12.5665C25.0003 12.209 24.9191 11.8565 24.7628 11.5373C24.6066 11.2181 24.3797 10.9411 24.1004 10.7287C23.8212 10.5163 23.4974 10.3744 23.1551 10.3145C22.8129 10.2545 22.4617 10.2782 22.13 10.3836C21.7982 10.489 21.4952 10.6731 21.2452 10.9211C20.9952 11.1692 20.8053 11.4743 20.6908 11.8117C20.5763 12.1492 20.5404 12.5096 20.586 12.864C20.6315 13.2184 20.7573 13.5568 20.9531 13.8519L18.8323 16.5418L16.9252 12.0285C17.2731 11.7271 17.5225 11.3229 17.6396 10.8706C17.7568 10.4183 17.7361 9.93987 17.5803 9.50013C17.4245 9.06039 17.1411 8.68061 16.7686 8.41227C16.3961 8.14393 15.9525 8 15.4979 8C15.0433 8 14.5997 8.14393 14.2272 8.41227C13.8547 8.68061 13.5714 9.06039 13.4156 9.50013C13.2598 9.93987 13.239 10.4183 13.3562 10.8706C13.4734 11.3229 13.7228 11.7271 14.0706 12.0285L12.1683 16.5394L10.0475 13.8495C10.3199 13.4385 10.4544 12.947 10.4305 12.45C10.4066 11.953 10.2256 11.4776 9.915 11.0963C9.60445 10.715 9.18137 10.4487 8.71022 10.3379C8.23906 10.2271 7.74563 10.2779 7.30509 10.4825C6.86455 10.6871 6.50104 11.0344 6.26991 11.4714C6.03878 11.9085 5.95271 12.4113 6.0248 12.9034C6.09689 13.3954 6.32319 13.8497 6.66924 14.1971C7.01529 14.5445 7.46212 14.7659 7.94169 14.8276L9.08799 21.9102C9.13727 22.2147 9.28985 22.4913 9.51858 22.6909C9.74732 22.8904 10.0374 23 10.3372 23H20.6634C20.9632 23 21.2533 22.8904 21.482 22.6909C21.7107 22.4913 21.8633 22.2147 21.9126 21.9102L23.0581 14.8309C23.5942 14.7619 24.0874 14.4938 24.445 14.0768C24.8025 13.6598 24.9999 13.1228 25 12.5665ZM15.5003 9.30601C15.6882 9.30601 15.8718 9.36338 16.0281 9.47086C16.1843 9.57834 16.306 9.73111 16.3779 9.90984C16.4498 10.0886 16.4687 10.2852 16.432 10.475C16.3954 10.6647 16.3049 10.839 16.172 10.9758C16.0392 11.1126 15.8699 11.2058 15.6856 11.2435C15.5013 11.2812 15.3103 11.2619 15.1368 11.1878C14.9632 11.1138 14.8148 10.9884 14.7104 10.8276C14.606 10.6667 14.5503 10.4776 14.5503 10.2842C14.5503 10.0247 14.6504 9.77594 14.8286 9.59251C15.0067 9.40907 15.2483 9.30601 15.5003 9.30601ZM7.26721 12.5665C7.26721 12.373 7.32292 12.1839 7.42731 12.0231C7.53169 11.8622 7.68006 11.7368 7.85364 11.6628C8.02722 11.5888 8.21823 11.5694 8.40251 11.6071C8.58679 11.6449 8.75605 11.738 8.88891 11.8748C9.02177 12.0116 9.11224 12.1859 9.1489 12.3757C9.18555 12.5654 9.16674 12.7621 9.09484 12.9408C9.02294 13.1195 8.90118 13.2723 8.74495 13.3798C8.58873 13.4873 8.40507 13.5446 8.21718 13.5446C7.96523 13.5446 7.7236 13.4416 7.54545 13.2581C7.36729 13.0747 7.26721 12.8259 7.26721 12.5665ZM22.7834 13.5446C22.5955 13.5446 22.4118 13.4873 22.2556 13.3798C22.0994 13.2723 21.9776 13.1195 21.9057 12.9408C21.8338 12.7621 21.815 12.5654 21.8517 12.3757C21.8883 12.1859 21.9788 12.0116 22.1117 11.8748C22.2445 11.738 22.4138 11.6449 22.5981 11.6071C22.7823 11.5694 22.9734 11.5888 23.1469 11.6628C23.3205 11.7368 23.4689 11.8622 23.5733 12.0231C23.6777 12.1839 23.7334 12.373 23.7334 12.5665C23.7334 12.8259 23.6333 13.0747 23.4551 13.2581C23.277 13.4416 23.0353 13.5446 22.7834 13.5446Z" fill="#ED7241"/>
</svg>
