<svg width="32" height="32" viewBox="0 0 32 32" fill="none" xmlns="http://www.w3.org/2000/svg">
<circle cx="16" cy="16" r="16" fill="#F2A9FF"/>
<path d="M22.9231 8H9.07692C8.52609 8 7.99782 8.22388 7.60832 8.6224C7.21882 9.02091 7 9.56141 7 10.125V20.0417C7 20.6053 7.21882 21.1458 7.60832 21.5443C7.99782 21.9428 8.52609 22.1667 9.07692 22.1667H15.3077V23.5833H13.2308C13.0472 23.5833 12.8711 23.658 12.7412 23.7908C12.6114 23.9236 12.5385 24.1038 12.5385 24.2917C12.5385 24.4795 12.6114 24.6597 12.7412 24.7925C12.8711 24.9254 13.0472 25 13.2308 25H18.7692C18.9528 25 19.1289 24.9254 19.2588 24.7925C19.3886 24.6597 19.4615 24.4795 19.4615 24.2917C19.4615 24.1038 19.3886 23.9236 19.2588 23.7908C19.1289 23.658 18.9528 23.5833 18.7692 23.5833H16.6923V22.1667H22.9231C23.4739 22.1667 24.0022 21.9428 24.3917 21.5443C24.7812 21.1458 25 20.6053 25 20.0417V10.125C25 9.56141 24.7812 9.02091 24.3917 8.6224C24.0022 8.22388 23.4739 8 22.9231 8ZM22.9231 20.75H9.07692C8.89331 20.75 8.71722 20.6754 8.58739 20.5425C8.45755 20.4097 8.38462 20.2295 8.38462 20.0417V18.625H23.6154V20.0417C23.6154 20.2295 23.5424 20.4097 23.4126 20.5425C23.2828 20.6754 23.1067 20.75 22.9231 20.75Z" fill="#AF41C3"/>
</svg>
