<svg width="18" height="18" viewBox="0 0 18 18" fill="none" xmlns="http://www.w3.org/2000/svg">
<path d="M0 9.52795C0.0848248 9.16689 0.176346 8.8081 0.25001 8.44477C0.279029 8.30625 0.337067 8.21315 0.446446 8.12913C0.662973 7.96109 0.868338 7.77942 1.08486 7.59776C1.36389 7.8044 1.62506 8.02013 1.90856 8.20179C2.2367 8.41298 2.57376 8.61735 2.92645 8.77858C3.34835 8.9716 3.78363 9.1351 4.22338 9.2827C5.52477 9.72097 6.84848 9.68918 8.16773 9.40305C8.66998 9.29406 9.16331 9.11012 9.63654 8.90348C10.2125 8.65141 10.7594 8.32669 11.2549 7.93611C11.8688 7.4547 12.4291 6.91424 12.8956 6.28069C12.9335 6.22846 12.9782 6.18077 13.034 6.11719C13.1523 6.20802 13.2751 6.28977 13.3778 6.38968C13.409 6.42148 13.4157 6.52593 13.3867 6.56454C13.2684 6.73258 13.1434 6.89835 13.0027 7.04822C12.5876 7.49784 12.1657 7.93611 11.6768 8.30852C11.1857 8.68321 10.6879 9.03518 10.1232 9.2827C9.75038 9.4462 9.37537 9.60061 8.99812 9.75049C7.92442 10.1774 6.80161 10.2364 5.6721 10.157C5.1386 10.1184 4.60509 10.0116 4.08721 9.87765C3.65639 9.76638 3.22781 9.60743 2.8327 9.40305C2.2858 9.12147 1.76793 8.77631 1.23889 8.45613C1.18978 8.4266 1.15406 8.37892 1.12504 8.35394C0.721011 8.497 0.741101 8.8785 0.647347 9.19868C0.573683 9.44393 0.596006 9.67101 0.727707 9.88901C0.977717 10.2955 1.20764 10.7201 1.48667 11.1062C1.77909 11.5104 2.11839 11.8805 2.43536 12.2666C2.44653 12.2802 2.45099 12.2961 2.46662 12.3256C2.34607 12.4573 2.22553 12.589 2.09383 12.7298C1.91972 12.5345 1.74337 12.3347 1.56479 12.1348C0.964324 11.4695 0.511181 10.7042 0.113844 9.90263C0.0758958 9.8277 0.0379479 9.75049 0 9.67101C0 9.62332 0 9.57564 0 9.52795Z" fill="#EBEBFF"/>
<path d="M14.554 0H16.8487C16.8152 0.347434 16.7818 0.683515 16.7483 1.0196C16.6791 1.69403 16.6099 2.36846 16.5474 3.04289C16.5429 3.09285 16.5786 3.17233 16.6188 3.19958C16.9112 3.38578 17.0809 3.66963 17.2059 3.97847C17.7952 5.44087 18.0586 6.96458 17.9894 8.5428C17.9425 9.61008 17.7483 10.6524 17.3867 11.6606C17.1478 12.326 16.8554 12.9618 16.4871 13.5636C16.1724 14.079 15.8219 14.5627 15.4179 15.0101C14.9156 15.5664 14.3665 16.0615 13.7481 16.4838C13.1856 16.8676 12.5896 17.1719 11.9624 17.4308C11.2614 17.7192 10.536 17.8645 9.79264 17.9303C9.36405 17.9689 8.92876 18.0257 8.50464 17.9871C7.73452 17.9167 6.96217 17.8032 6.22776 17.5375C5.87284 17.4103 5.51345 17.2786 5.18754 17.0901C4.64734 16.779 4.11831 16.4452 3.61382 16.0774C3.26783 15.823 2.97317 15.496 2.66066 15.1963C2.61825 15.1554 2.5803 15.0918 2.5736 15.0328C2.52226 14.6127 2.47762 14.1949 2.43967 13.7748C2.43297 13.7157 2.45529 13.643 2.48655 13.5908C2.62271 13.3478 2.76781 13.1117 2.90397 12.871C2.95308 12.7847 3.00665 12.7711 3.10487 12.796C3.5848 12.9187 4.07143 13.0208 4.55136 13.1435C5.29023 13.3342 6.03802 13.3002 6.77689 13.1957C7.31486 13.1185 7.85283 12.9777 8.36847 12.8006C9.05823 12.5644 9.70781 12.2261 10.3038 11.7969C10.7012 11.5108 11.0851 11.1951 11.4333 10.8499C12.2191 10.0711 12.853 9.17409 13.3218 8.1613C13.7548 7.22573 14.0339 6.24474 14.1678 5.21833C14.2169 4.84819 14.2504 4.4735 14.3174 4.1079C14.3732 3.81042 14.5205 3.54701 14.7549 3.35626C14.8799 3.25635 14.8888 3.14735 14.8754 3.01564C14.8107 2.40025 14.746 1.78713 14.6835 1.17174C14.6433 0.787972 14.6053 0.404205 14.5629 0.00227081L14.554 0ZM9.20779 17.3831C9.83951 17.3581 10.7079 17.2718 11.5494 16.9539C12.2347 16.6927 12.8999 16.4021 13.4847 15.9547C13.8687 15.6618 14.2392 15.3462 14.6053 15.0282C15.0964 14.6013 15.4804 14.079 15.8442 13.5409C16.3063 12.8551 16.6634 12.1171 16.9246 11.3336C17.4849 9.6555 17.6099 7.9433 17.2907 6.19932C17.1545 5.45449 16.9425 4.73465 16.6367 4.04659C16.5183 3.7809 16.2862 3.61513 16.0183 3.53339C15.4491 3.35853 14.7951 3.85811 14.766 4.56888C14.7281 5.47493 14.5495 6.35828 14.275 7.22119C13.8419 8.57686 13.1499 9.78266 12.2213 10.8454C11.7436 11.3904 11.1989 11.8673 10.6119 12.2828C10.0493 12.6825 9.43994 13.0095 8.80153 13.2638C8.38187 13.4319 7.94435 13.5704 7.50237 13.6703C6.59385 13.8747 5.66971 13.9246 4.74556 13.7906C4.27679 13.7225 3.81472 13.5976 3.34819 13.5023C3.30131 13.4932 3.21425 13.4773 3.20532 13.4954C3.12943 13.6499 3.02675 13.8088 3.01335 13.9723C2.99549 14.1994 3.0446 14.4333 3.07362 14.6626C3.08255 14.7308 3.10041 14.8125 3.14505 14.8557C3.42855 15.1282 3.69865 15.4211 4.01562 15.6482C4.48439 15.9865 4.97325 16.2999 5.47997 16.5747C5.84605 16.7745 6.24785 16.9198 6.64519 17.047C7.39745 17.2854 8.17204 17.3922 9.21226 17.3853L9.20779 17.3831ZM15.4022 2.90437H16.0139C16.092 2.12548 16.1701 1.35568 16.2505 0.579057H15.1634C15.2437 1.35795 15.3219 2.12321 15.4022 2.90437Z" fill="#EBEBFF"/>
<path d="M16.3532 8.65462C16.5318 8.6637 16.6992 8.67278 16.8934 8.68414C16.7193 10.9277 15.909 12.8533 14.3598 14.4838C14.2281 14.3294 14.1098 14.1909 13.9893 14.0478C15.4268 12.5354 16.1813 10.7415 16.351 8.65234L16.3532 8.65462Z" fill="#EBEBFF"/>
</svg>
