<svg width="28" height="28" viewBox="0 0 28 28" fill="none" xmlns="http://www.w3.org/2000/svg">
<g id="Clock">
<path id="Vector" d="M17.0625 14C17.0625 14.6057 16.8829 15.1978 16.5464 15.7014C16.2099 16.2051 15.7316 16.5976 15.172 16.8294C14.6124 17.0612 13.9966 17.1218 13.4025 17.0037C12.8085 16.8855 12.2628 16.5938 11.8345 16.1655C11.4062 15.7372 11.1145 15.1915 10.9963 14.5975C10.8782 14.0034 10.9388 13.3876 11.1706 12.828C11.4024 12.2684 11.7949 11.7901 12.2986 11.4536C12.8022 11.1171 13.3943 10.9375 14 10.9375C14.8122 10.9375 15.5912 11.2602 16.1655 11.8345C16.7398 12.4088 17.0625 13.1878 17.0625 14ZM14 8.3125C14.6057 8.3125 15.1978 8.13289 15.7014 7.79638C16.2051 7.45987 16.5976 6.98157 16.8294 6.42197C17.0612 5.86237 17.1218 5.2466 17.0037 4.65254C16.8855 4.05847 16.5938 3.51279 16.1655 3.08449C15.7372 2.65619 15.1915 2.36451 14.5975 2.24635C14.0034 2.12818 13.3876 2.18883 12.828 2.42062C12.2684 2.65241 11.7901 3.04494 11.4536 3.54857C11.1171 4.05219 10.9375 4.6443 10.9375 5.25C10.9375 6.06223 11.2602 6.84119 11.8345 7.41552C12.4088 7.98985 13.1878 8.3125 14 8.3125ZM14 19.6875C13.3943 19.6875 12.8022 19.8671 12.2986 20.2036C11.7949 20.5401 11.4024 21.0184 11.1706 21.578C10.9388 22.1376 10.8782 22.7534 10.9963 23.3475C11.1145 23.9415 11.4062 24.4872 11.8345 24.9155C12.2628 25.3438 12.8085 25.6355 13.4025 25.7537C13.9966 25.8718 14.6124 25.8112 15.172 25.5794C15.7316 25.3476 16.2099 24.9551 16.5464 24.4514C16.8829 23.9478 17.0625 23.3557 17.0625 22.75C17.0625 21.9378 16.7398 21.1588 16.1655 20.5845C15.5912 20.0102 14.8122 19.6875 14 19.6875Z" fill="#75777F"/>
</g>
</svg>
