<svg width="20" height="20" viewBox="0 0 20 20" fill="none" xmlns="http://www.w3.org/2000/svg">
<circle cx="10" cy="10" r="10" fill="#EFF0F4"/>
<rect x="5" y="4.63672" width="10.3125" height="10.3125" fill="#1A1B1E"/>
<path d="M3.71042 3.44689C3.91856 3.43437 4.12727 3.43437 4.33542 3.44689H16.1135C16.1739 3.4389 16.2353 3.44455 16.2932 3.46349C16.3511 3.48242 16.4039 3.51413 16.4479 3.55626C16.6042 3.71564 16.5479 3.95315 16.5573 4.15315C16.5573 8.16148 16.5573 12.1719 16.5573 16.1844C16.556 16.2394 16.5432 16.2936 16.5195 16.3433C16.4959 16.393 16.462 16.4371 16.4201 16.4728C16.3782 16.5085 16.3292 16.535 16.2764 16.5505C16.2236 16.5659 16.1681 16.57 16.1135 16.5625H3.81979C3.76941 16.5647 3.71912 16.5564 3.67208 16.5382C3.62504 16.5201 3.58228 16.4923 3.54647 16.4568C3.51066 16.4213 3.48259 16.3788 3.46402 16.3319C3.44544 16.285 3.43677 16.2348 3.43854 16.1844V3.82813C3.43209 3.74282 3.45576 3.65793 3.50544 3.58827C3.55512 3.5186 3.62765 3.46859 3.71042 3.44689ZM6.40104 6.70937C6.40104 8.89687 6.40104 11.0844 6.40104 13.2719H8.86354C8.86354 12.1875 8.84792 11.0844 8.86354 10.0156C9.13229 10.3906 9.37917 10.7844 9.65417 11.1562C10.1135 11.8687 10.6323 12.5406 11.0729 13.2656C11.8979 13.2875 12.7229 13.2656 13.551 13.2656C13.551 13.1625 13.5667 13.0594 13.5667 12.9531C13.5667 10.8656 13.5667 8.77499 13.5667 6.70312C12.7479 6.70312 11.9323 6.70312 11.1167 6.70312C11.1167 7.79374 11.1167 8.89061 11.1167 9.97499C10.3573 8.89686 9.64167 7.78751 8.86354 6.71876C8.04479 6.68438 7.21354 6.70937 6.40104 6.70937Z" fill="#EFF0F4"/>
<path d="M5.01453 4.0625H14.9883C15.24 4.0625 15.4815 4.16251 15.6595 4.34052C15.8375 4.51853 15.9375 4.75996 15.9375 5.01171V14.9855C15.9375 15.1105 15.9129 15.2343 15.865 15.3498C15.8172 15.4653 15.7471 15.5703 15.6587 15.6587C15.5703 15.7471 15.4653 15.8172 15.3498 15.865C15.2343 15.9129 15.1105 15.9375 14.9855 15.9375H5.01453C4.88951 15.9375 4.76571 15.9129 4.6502 15.865C4.5347 15.8172 4.42975 15.7471 4.34134 15.6587C4.25294 15.5703 4.18281 15.4653 4.13497 15.3498C4.08712 15.2343 4.0625 15.1105 4.0625 14.9855V5.01171C4.06325 4.7597 4.16388 4.51828 4.34234 4.34035C4.5208 4.16242 4.76252 4.0625 5.01453 4.0625Z" fill="#EFF0F4"/>
<path d="M10.0304 4.82617C6.9192 4.82617 4.41016 6.83338 4.41016 9.27016C4.41016 10.8519 5.45392 12.2368 7.01956 13.0277L6.48965 15.0068C6.47966 15.0365 6.47812 15.0683 6.48521 15.0988C6.4923 15.1293 6.50774 15.1572 6.52979 15.1794C6.56195 15.2078 6.60333 15.2235 6.64621 15.2236C6.68177 15.2207 6.7155 15.2067 6.74256 15.1835L9.02277 13.6459C9.35936 13.6924 9.69866 13.7165 10.0384 13.7182C13.1456 13.7182 15.6587 11.711 15.6587 9.27016C15.6587 6.82937 13.1376 4.82617 10.0304 4.82617Z" fill="#1A1B1E"/>
<path d="M6.37455 8.56786H5.76034C5.68421 8.57007 5.60902 8.55057 5.54355 8.51165C5.51449 8.49344 5.4895 8.46941 5.47016 8.44109C5.45081 8.41276 5.43753 8.38074 5.43115 8.34705C5.4292 8.32568 5.4292 8.30422 5.43115 8.28285C5.42924 8.24287 5.437 8.203 5.45378 8.16666C5.47055 8.13032 5.49584 8.09857 5.5275 8.07409C5.59748 8.0234 5.68196 7.99663 5.76836 7.99779H7.61903C7.69577 7.99509 7.77146 8.01613 7.83581 8.05802C7.86556 8.07542 7.89108 8.09924 7.91052 8.1277C7.92996 8.15616 7.94283 8.18858 7.94822 8.22262C7.95018 8.24265 7.95018 8.26282 7.94822 8.28285C7.95011 8.3234 7.94237 8.36382 7.92562 8.4008C7.90887 8.43779 7.8836 8.47025 7.85187 8.49558C7.78359 8.5462 7.69993 8.57175 7.61502 8.56786H7.02088V10.6795C7.02329 10.7245 7.01633 10.7694 7.00043 10.8116C6.98454 10.8537 6.96006 10.8922 6.92854 10.9243C6.89832 10.9551 6.862 10.9793 6.8219 10.9952C6.7818 11.0111 6.73881 11.0184 6.6957 11.0167C6.62031 11.0188 6.54652 10.9947 6.48695 10.9485C6.43025 10.9033 6.39176 10.8391 6.37856 10.7678C6.3746 10.7385 6.3746 10.7088 6.37856 10.6795L6.37455 8.56786Z" fill="#EFF0F4"/>
<path d="M8.12696 8.15444C8.14462 8.08838 8.18608 8.03118 8.24338 7.99385C8.30443 7.95925 8.374 7.94256 8.4441 7.94568H8.59665C8.67104 7.94302 8.7447 7.96109 8.80942 7.99787C8.87799 8.04399 8.92672 8.1142 8.94591 8.19458L9.7488 10.4628C9.76962 10.5219 9.78704 10.5823 9.80099 10.6434C9.80236 10.6688 9.80236 10.6943 9.80099 10.7197C9.80235 10.7588 9.79515 10.7978 9.77989 10.8338C9.76464 10.8699 9.7417 10.9022 9.71267 10.9285C9.68455 10.9573 9.65078 10.98 9.61348 10.9952C9.57618 11.0104 9.53615 11.0177 9.49589 11.0168C9.43397 11.0229 9.37179 11.0081 9.31935 10.9746C9.26692 10.9411 9.22728 10.8909 9.20685 10.8321L9.03824 10.3383H7.98244L7.81383 10.8321C7.79389 10.892 7.75378 10.9432 7.70034 10.9769C7.64691 11.0105 7.58344 11.0246 7.52077 11.0168C7.45289 11.0185 7.3864 10.9973 7.33209 10.9565C7.27919 10.9145 7.24349 10.8545 7.23173 10.788C7.2296 10.7653 7.2296 10.7424 7.23173 10.7197C7.22484 10.6798 7.22484 10.6391 7.23173 10.5993C7.23173 10.5551 7.25983 10.5069 7.27589 10.4628L8.12696 8.15444ZM8.52841 8.68036L8.14703 9.8847H8.90576L8.52841 8.68036Z" fill="#EFF0F4"/>
<path d="M9.89097 8.2829C9.8869 8.19281 9.91865 8.10477 9.97929 8.03802C10.0101 8.00693 10.0471 7.98262 10.0879 7.96672C10.1287 7.95081 10.1724 7.94362 10.2161 7.94565C10.2913 7.94477 10.3647 7.96878 10.4249 8.01391C10.4807 8.061 10.5177 8.1265 10.5293 8.19856C10.5332 8.22652 10.5332 8.25494 10.5293 8.2829V10.3945H11.6333C11.7098 10.3935 11.785 10.4144 11.85 10.4547C11.8793 10.4727 11.9044 10.4967 11.9237 10.5251C11.9431 10.5534 11.9563 10.5855 11.9624 10.6193C11.9624 10.6193 11.9624 10.6594 11.9624 10.6795C11.9643 10.7195 11.9566 10.7593 11.9398 10.7957C11.923 10.832 11.8978 10.8638 11.8661 10.8883C11.7961 10.939 11.7116 10.9657 11.6252 10.9645H10.2683C10.1819 10.9701 10.096 10.9476 10.0234 10.9003C9.95854 10.8518 9.9153 10.7797 9.90302 10.6996C9.90008 10.6555 9.90008 10.6112 9.90302 10.5671L9.89097 8.2829Z" fill="#EFF0F4"/>
<path d="M12.0349 8.28261C12.0325 8.19278 12.064 8.10535 12.1232 8.03774C12.1834 7.98306 12.2605 7.95078 12.3417 7.94639C12.4229 7.942 12.5031 7.96576 12.5688 8.01363C12.6258 8.0603 12.6642 8.12577 12.6772 8.19827C12.6792 8.22634 12.6792 8.25455 12.6772 8.28261V9.26614L13.6928 8.09389C13.732 8.0539 13.7735 8.0164 13.8173 7.98153C13.8585 7.95697 13.9058 7.94442 13.9538 7.94536C14.024 7.94498 14.0926 7.96599 14.1505 8.00559C14.1778 8.02397 14.2011 8.04768 14.219 8.07527C14.237 8.10286 14.2492 8.13377 14.2549 8.16618C14.2565 8.17412 14.2565 8.18234 14.2549 8.19029C14.2529 8.19955 14.2529 8.2091 14.2549 8.21837C14.2547 8.26061 14.2437 8.30212 14.2228 8.33882C14.2015 8.37768 14.1759 8.414 14.1465 8.44717L13.4801 9.17783L14.283 10.4223V10.4624C14.3247 10.52 14.3572 10.5837 14.3793 10.6512V10.6712C14.384 10.7177 14.3773 10.7647 14.3598 10.808C14.3423 10.8514 14.3146 10.8898 14.279 10.9201C14.212 10.9707 14.1301 10.9976 14.0461 10.9964C13.9903 10.9987 13.935 10.9862 13.8855 10.9602C13.8321 10.9244 13.788 10.8762 13.7571 10.8197L13.0104 9.61539L12.6531 9.98876V10.6591C12.6555 10.749 12.624 10.8364 12.5648 10.904C12.5331 10.935 12.4953 10.9592 12.4539 10.9751C12.4125 10.991 12.3682 10.9982 12.3239 10.9964C12.2498 10.9979 12.1775 10.9738 12.1192 10.9281C12.0625 10.8829 12.024 10.8188 12.0108 10.7475C12.0068 10.7182 12.0068 10.6884 12.0108 10.6591L12.0349 8.28261Z" fill="#EFF0F4"/>
</svg>
