<svg width="76" height="83" viewBox="0 0 76 83" fill="none" xmlns="http://www.w3.org/2000/svg">
<path fill-rule="evenodd" clip-rule="evenodd" d="M14.0826 9.90046L15.8093 10.1746L17.5873 10.6734L53.0311 23.4842L54.5822 24.1134L56.0713 24.9121L57.4869 25.8629L58.8177 26.9487L60.052 28.153L61.1778 29.4597L62.1829 30.853L63.0544 32.3175L63.7792 33.8377L64.3435 35.3984L64.7331 36.984L64.9329 38.5794L65.5642 73.3741L65.5642 73.3751L65.3516 75.0654L64.9329 76.6289L64.319 78.052L63.5206 79.3202L62.549 80.4184L61.416 81.3309L60.1331 82.0417L58.7137 82.534L57.1704 82.7914L55.5181 82.7968L53.7711 82.5337L14.6098 74.2316L12.6964 73.7919L10.6837 72.9343L8.75959 71.6922L7.03736 70.4006L5.4645 68.9259L4.06166 67.2932L2.8488 65.5281L1.84508 63.6566L1.06883 61.705L0.537327 59.6999L0.266602 57.6672L0.271864 55.6335L3.38191 18.1683L3.63153 16.5374L4.11707 15.0659L4.81775 13.7619L5.71302 12.6331L6.78274 11.6863L8.00725 10.928L9.36751 10.3644L10.8451 10.0013L12.4224 9.84473L14.0826 9.90046ZM65.5642 73.3741L64.9329 38.5794L65.5601 71.571L65.5642 73.3741Z" fill="url(#paint0_linear_1097_8152)" fill-opacity="0.5"/>
<path fill-rule="evenodd" clip-rule="evenodd" d="M11.1916 6.69298L10.942 8.32388L7.9908 48.7362L7.98554 50.7699L8.2562 52.8024L8.78776 54.8077L9.56402 56.7593L10.5677 58.6308L11.7806 60.3959L13.1834 62.0286L14.7563 63.5033L16.4785 64.7949L18.329 65.8792L20.286 66.733L22.3279 67.3341L64.209 76.765L65.9559 77.0281L67.6083 77.0227L69.1514 76.7654L70.5709 76.2731L69.1575 77.1059L67.8797 77.8141L66.5294 78.6105L67.8791 77.8145L67.8797 77.8141L69.1575 77.1059L70.5709 76.2731L71.8538 75.5623L69.1588 77.1051L69.1582 77.1055L69.1575 77.1059L67.8797 77.8141L66.5294 78.6105L63.9651 80.0786L61.4628 81.5111L60.1983 82.2126L58.8053 82.7053L57.2974 82.9733L55.6885 83.0002L53.9936 82.77L13.5812 74.2794L11.621 73.7315L9.74697 72.9403L7.97963 71.9267L6.33922 70.7127L4.84558 69.321L3.51805 67.7753L2.37535 66.0997L1.43549 64.3186L0.715634 62.4569L0.232046 60.5395L0 58.5912L0.0337061 56.6367L3.46082 17.5758L3.7261 15.9896L4.21764 14.5525L6.71285 11.0194L7.59984 9.90122L9.44453 7.58855L11.3348 5.21874L13.2713 2.79102L12.3778 3.91755L11.6771 5.22146L11.1916 6.69298Z" fill="url(#paint1_linear_1097_8152)"/>
<g filter="url(#filter0_b_1097_8152)">
<path fill-rule="evenodd" clip-rule="evenodd" d="M21.6415 0.0557371L23.3682 0.32986L25.1462 0.828697L61.7565 13.3149L63.3077 13.9441L64.7967 14.7429L66.2124 15.6936L67.5432 16.7794L68.7775 17.9837L69.9033 19.2904L70.9083 20.6838L71.7798 22.1483L72.5046 23.6685L73.069 25.2291L73.4585 26.8148L73.6584 28.4101L76.0009 67.6051L76.001 67.6061L75.7884 69.2964L75.3697 70.8599L74.7557 72.283L73.9574 73.5512L72.9858 74.6494L71.8527 75.5619L70.5699 76.2727L69.1504 76.765L67.6072 77.0224L65.9548 77.0278L64.2078 76.7647L22.3276 67.334L20.4142 66.8943L18.4014 66.0367L16.4774 64.7945L14.7551 63.503L13.1823 62.0283L11.7794 60.3956L10.5666 58.6305L9.56286 56.7589L8.7866 54.8074L8.2551 52.8023L7.98438 50.7696L7.98964 48.7359L10.9408 8.32356L11.1904 6.69265L11.676 5.22113L12.3767 3.91722L13.2719 2.78838L14.3416 1.84157L15.5662 1.08327L16.9264 0.519637L18.404 0.156591L19.9813 0L21.6415 0.0557371ZM76.0009 67.6051L73.6584 28.4101L75.9969 65.802L76.0009 67.6051Z" fill="url(#paint2_linear_1097_8152)" fill-opacity="0.3"/>
<path d="M75.6497 67.5946L75.4441 69.2289L75.0382 70.7448L74.4451 72.1195L73.6763 73.3407L72.7432 74.3954L71.6567 75.2704L70.4267 75.9519L69.0637 76.4246L67.5776 76.6725L65.9805 76.6777L64.2725 76.4205L22.406 66.9929L22.4045 66.9925L20.5229 66.5602L18.5661 65.7264L16.6775 64.5072L14.9805 63.2345L13.4354 61.7859L12.0572 60.1818L10.8659 58.4481L9.88071 56.6111L9.11956 54.6974L8.59911 52.7341L8.33444 50.7468L8.3396 48.7491L11.2889 8.36284L11.532 6.77453L11.9988 5.35986L12.6702 4.11031L13.527 3.03003L14.5513 2.12343L15.7263 1.39576L17.0358 0.853174L18.4634 0.50242L19.9928 0.350582L21.608 0.404812L23.2932 0.672343L25.0423 1.16308L61.6342 13.643L63.1588 14.2614L64.616 15.0431L66.0037 15.9751L67.3099 17.0408L68.5222 18.2236L69.6283 19.5074L70.6154 20.876L71.4708 22.3135L72.1813 23.8036L72.7335 25.3307L73.1138 26.8784L73.3097 28.4424L75.6497 67.5946Z" stroke="url(#paint3_linear_1097_8152)" stroke-width="0.7"/>
</g>
<g filter="url(#filter1_d_1097_8152)">
<path fill-rule="evenodd" clip-rule="evenodd" d="M25.526 32.0991L27.1714 30.3477L25.2212 32.4241L25.526 32.0991ZM65.222 33.534L43.079 49.8444L43.0771 49.8458L42.6872 50.0855L42.2661 50.2569L41.8199 50.3612L41.3547 50.3996L40.8767 50.3732L40.3925 50.2835L39.9083 50.1316L39.4306 49.9192L38.9661 49.6476L38.2759 50.5318L37.5858 51.4161L38.0583 51.6242L38.5375 51.7723L39.0171 51.8589L39.4908 51.8828L39.9522 51.8428L40.3951 51.7376L40.8135 51.566L41.2012 51.3271L63.2741 35.0573L63.2753 35.0565L65.222 33.534ZM26.8652 30.6742L25.2212 32.4241L24.9774 32.7921L24.7953 33.1969L24.6757 33.6324L24.6191 34.0925L24.6263 34.5708L24.6977 35.061L24.8339 35.5566L25.0353 36.0512L25.3022 36.5381L25.6348 37.0108L35.8934 50.0141L36.2739 50.4467L36.6872 50.8257L37.1266 51.1494L37.5858 51.4161L38.2759 50.5318L38.9661 49.6476L38.5211 49.3185L38.1023 48.9335L37.7163 48.4946L27.3031 35.3078L26.9652 34.8287L26.6937 34.3356L26.4882 33.8351L26.3485 33.3338L26.2743 32.8384L26.2649 32.3554L26.3199 31.8912L26.4387 31.4521L26.6207 31.0443L26.8652 30.6742ZM26.8652 30.6742L27.1714 30.3477L25.2212 32.4241L26.8652 30.6742Z" fill="url(#paint4_linear_1097_8152)"/>
<path fill-rule="evenodd" clip-rule="evenodd" d="M65.0411 28.9751L65.3353 29.3939L65.5798 29.823L65.7742 30.2573L65.9184 30.6916L66.0122 31.1207L66.0552 31.5395L66.0469 31.9426L65.987 32.3247L65.8751 32.6803L65.7106 33.004L65.493 33.2903L65.2218 33.5333L43.0783 49.8441L43.0768 49.8451L42.687 50.0848L42.2659 50.2562L41.8196 50.3605L41.3544 50.3989L40.8765 50.3726L40.3922 50.2828L39.908 50.131L39.4304 49.9185L38.9658 49.6469L38.5209 49.3178L40.5684 41.1509L60.546 27.489L60.867 27.3115L61.2154 27.1954L61.5857 27.1387L61.9726 27.1392L62.3709 27.1949L62.7752 27.304L63.1804 27.4644L63.5814 27.6743L63.973 27.932L64.3502 28.2358L64.7079 28.584L65.0411 28.9751ZM26.3197 31.8903L26.4385 31.4514L26.6204 31.0439L27.9527 29.8552L29.8313 29.6643L30.3242 29.7728L30.8138 29.9399L31.2938 30.1634L31.7581 30.4417L32.2007 30.7729L32.6153 31.1554L32.9959 31.5876L40.5684 41.1509L38.5209 49.3178L38.1021 48.9329L37.716 48.4939L27.3028 35.3071L26.965 34.828L26.6934 34.3349L26.4879 33.8344L26.3483 33.3332L26.274 32.8378L26.2646 32.3547L26.3197 31.8903ZM29.8313 29.6643L29.3414 29.6161L28.8608 29.6305L28.3957 29.7094L27.9527 29.8552L29.8313 29.6643ZM27.9527 29.8552L27.5385 30.0701L27.1712 30.3469L26.8649 30.6735L26.6204 31.0439L27.9527 29.8552Z" fill="url(#paint5_linear_1097_8152)"/>
</g>
<defs>
<filter id="filter0_b_1097_8152" x="-5.01562" y="-13" width="94.0166" height="103.027" filterUnits="userSpaceOnUse" color-interpolation-filters="sRGB">
<feFlood flood-opacity="0" result="BackgroundImageFix"/>
<feGaussianBlur in="BackgroundImageFix" stdDeviation="6.5"/>
<feComposite in2="SourceAlpha" operator="in" result="effect1_backgroundBlur_1097_8152"/>
<feBlend mode="normal" in="SourceGraphic" in2="effect1_backgroundBlur_1097_8152" result="shape"/>
</filter>
<filter id="filter1_d_1097_8152" x="7.91382" y="22.4983" width="67.4216" height="50.7302" filterUnits="userSpaceOnUse" color-interpolation-filters="sRGB">
<feFlood flood-opacity="0" result="BackgroundImageFix"/>
<feColorMatrix in="SourceAlpha" type="matrix" values="0 0 0 0 0 0 0 0 0 0 0 0 0 0 0 0 0 0 127 0" result="hardAlpha"/>
<feOffset dx="-3.71229" dy="8.35266"/>
<feGaussianBlur stdDeviation="6.49651"/>
<feComposite in2="hardAlpha" operator="out"/>
<feColorMatrix type="matrix" values="0 0 0 0 0.103333 0 0 0 0 0.4104 0 0 0 0 0.43 0 0 0 0.25 0"/>
<feBlend mode="normal" in2="BackgroundImageFix" result="effect1_dropShadow_1097_8152"/>
<feBlend mode="normal" in="SourceGraphic" in2="effect1_dropShadow_1097_8152" result="shape"/>
</filter>
<linearGradient id="paint0_linear_1097_8152" x1="2.16053" y1="87.3771" x2="61.4554" y2="14.8972" gradientUnits="userSpaceOnUse">
<stop offset="0.320833" stop-color="#D6DF22" stop-opacity="0.4"/>
<stop offset="0.58125" stop-color="#0057FF" stop-opacity="0.3"/>
<stop offset="0.89375" stop-color="#3038FF" stop-opacity="0.7"/>
</linearGradient>
<linearGradient id="paint1_linear_1097_8152" x1="-17.6464" y1="13.6613" x2="65.3701" y2="97.0515" gradientUnits="userSpaceOnUse">
<stop stop-color="#CBF3FF"/>
<stop offset="0.35896" stop-color="#D6DF22" stop-opacity="0.08"/>
<stop offset="0.683604" stop-color="#0057FF" stop-opacity="0.2"/>
<stop offset="1" stop-color="#D6DF22" stop-opacity="0.4"/>
</linearGradient>
<linearGradient id="paint2_linear_1097_8152" x1="10.1459" y1="79.927" x2="69.4408" y2="7.44703" gradientUnits="userSpaceOnUse">
<stop offset="0.320833" stop-color="#CAD539"/>
<stop offset="0.685417" stop-color="#D6DF22" stop-opacity="0.37"/>
<stop offset="0.89375" stop-color="#D6DF22" stop-opacity="0.4"/>
</linearGradient>
<linearGradient id="paint3_linear_1097_8152" x1="7.86192" y1="69.6053" x2="73.6176" y2="14.1194" gradientUnits="userSpaceOnUse">
<stop offset="0.180663" stop-color="white" stop-opacity="0.35"/>
<stop offset="0.533255" stop-color="white" stop-opacity="0"/>
</linearGradient>
<linearGradient id="paint4_linear_1097_8152" x1="22.7254" y1="14.4979" x2="23.1959" y2="56.7916" gradientUnits="userSpaceOnUse">
<stop offset="0.301696" stop-color="#D6DF22" stop-opacity="0.4"/>
<stop offset="0.993284" stop-color="#D6DF22" stop-opacity="0.4"/>
</linearGradient>
<linearGradient id="paint5_linear_1097_8152" x1="42.9572" y1="57.5366" x2="64.1988" y2="19.5021" gradientUnits="userSpaceOnUse">
<stop stop-color="white"/>
<stop offset="0.644664" stop-color="white" stop-opacity="0.57"/>
</linearGradient>
</defs>
</svg>
