<svg width="381" height="770" viewBox="0 0 381 770" fill="none" xmlns="http://www.w3.org/2000/svg">
<path d="M317.673 0H63.2552C30.098 0 3.21875 26.9383 3.21875 60.1683V709.832C3.21875 743.062 30.098 770 63.2552 770H317.673C350.83 770 377.709 743.062 377.709 709.832V60.1683C377.709 26.9383 350.83 0 317.673 0Z" fill="#37383E"/>
<g style="mix-blend-mode:screen">
<path d="M317.208 1.79199H63.7209C31.2972 1.79199 5.00781 28.1392 5.00781 60.634V709.348C5.00781 741.842 31.2972 768.19 63.7209 768.19H317.208C349.632 768.19 375.921 741.842 375.921 709.348V60.634C375.921 28.1392 349.632 1.79199 317.208 1.79199ZM374.133 708.882C374.133 740.659 348.434 766.415 316.725 766.415H64.2037C32.4955 766.415 6.79621 740.659 6.79621 708.882V61.1179C6.79621 29.34 32.4955 3.58432 64.2037 3.58432H316.743C348.451 3.58432 374.151 29.34 374.151 61.1179V708.899L374.133 708.882Z" fill="#706F6F"/>
</g>
<path d="M316.173 5.87891H64.7781C34.2877 5.87891 9.57031 30.6506 9.57031 61.2079V708.792C9.57031 739.35 34.2877 764.121 64.7781 764.121H316.173C346.663 764.121 371.381 739.35 371.381 708.792V61.2079C371.381 30.6506 346.663 5.87891 316.173 5.87891Z" fill="#1D1D1B"/>
<path d="M287.218 18.1562H316.459C340.226 18.1562 359.47 37.4596 359.47 61.2616V708.721C359.47 732.541 340.209 751.826 316.459 751.826H64.4914C40.7236 751.826 21.4805 732.523 21.4805 708.721V61.2616C21.4805 37.4416 40.7415 18.1562 64.4914 18.1562H287.218Z" fill="#323339"/>
<path d="M379.911 196.726H377.711V289.532H379.911V196.726Z" fill="url(#paint0_linear_1940_5785)"/>
<path d="M379.91 289.55V196.761L381.001 197.962C380.447 207.838 380.482 278.473 381.001 288.331L379.91 289.532V289.55Z" fill="url(#paint1_linear_1940_5785)"/>
<path d="M1.87688 177.207H0.625V235.995H1.87688V177.207Z" fill="url(#paint2_linear_1940_5785)"/>
<path d="M0.625939 235.995V177.225L0 177.996C0.321911 184.251 0.286143 229.005 0 235.243L0.625939 236.013V235.995Z" fill="url(#paint3_linear_1940_5785)"/>
<path d="M3.2202 177.207H1.87891V235.995H3.2202V177.207Z" fill="url(#paint4_linear_1940_5785)"/>
<path d="M1.87688 251.158H0.625V309.946H1.87688V251.158Z" fill="url(#paint5_linear_1940_5785)"/>
<path d="M0.625939 309.947V251.176L0 251.947C0.321911 258.202 0.286143 302.956 0 309.194L0.625939 309.964V309.947Z" fill="url(#paint6_linear_1940_5785)"/>
<path d="M3.2202 251.176H1.87891V309.964H3.2202V251.176Z" fill="url(#paint7_linear_1940_5785)"/>
<path d="M1.87688 121.663H0.625V151.846H1.87688V121.663Z" fill="url(#paint8_linear_1940_5785)"/>
<path d="M0.625939 151.828V121.663L0 122.38C0.321911 128.295 0.286143 145.196 0 151.093L0.625939 151.81V151.828Z" fill="url(#paint9_linear_1940_5785)"/>
<path d="M3.2202 121.663H1.87891V151.846H3.2202V121.663Z" fill="url(#paint10_linear_1940_5785)"/>
<defs>
<linearGradient id="paint0_linear_1940_5785" x1="378.802" y1="196.726" x2="378.802" y2="289.532" gradientUnits="userSpaceOnUse">
<stop stop-color="#6A6567"/>
<stop offset="0.02" stop-color="#70656C"/>
<stop offset="0.04" stop-color="#3D323C"/>
<stop offset="0.08" stop-color="#2B1D2A"/>
<stop offset="0.11" stop-color="#483E47"/>
<stop offset="0.9" stop-color="#544B53"/>
<stop offset="0.94" stop-color="#2B1D2A"/>
<stop offset="0.96" stop-color="#433842"/>
<stop offset="0.98" stop-color="#676366"/>
<stop offset="1" stop-color="#524852"/>
</linearGradient>
<linearGradient id="paint1_linear_1940_5785" x1="380.447" y1="196.743" x2="380.447" y2="289.532" gradientUnits="userSpaceOnUse">
<stop stop-color="#676067"/>
<stop offset="0.06" stop-color="#4C434C"/>
<stop offset="0.19" stop-color="#786F77"/>
<stop offset="0.81" stop-color="#786F77"/>
<stop offset="0.92" stop-color="#433C43"/>
<stop offset="1" stop-color="#676067"/>
</linearGradient>
<linearGradient id="paint2_linear_1940_5785" x1="1.25094" y1="177.189" x2="1.25094" y2="235.977" gradientUnits="userSpaceOnUse">
<stop stop-color="#68595F"/>
<stop offset="0.02" stop-color="#857F83"/>
<stop offset="0.04" stop-color="#3E343D"/>
<stop offset="0.08" stop-color="#2D1E2C"/>
<stop offset="0.11" stop-color="#483C46"/>
<stop offset="0.9" stop-color="#4E474D"/>
<stop offset="0.94" stop-color="#2D1E2C"/>
<stop offset="0.96" stop-color="#443843"/>
<stop offset="0.98" stop-color="#7E737A"/>
<stop offset="1" stop-color="#564E56"/>
</linearGradient>
<linearGradient id="paint3_linear_1940_5785" x1="0.321911" y1="177.207" x2="0.321911" y2="235.977" gradientUnits="userSpaceOnUse">
<stop stop-color="#676067"/>
<stop offset="0.06" stop-color="#5D565C"/>
<stop offset="0.19" stop-color="#786F77"/>
<stop offset="0.81" stop-color="#786F77"/>
<stop offset="0.92" stop-color="#514C51"/>
<stop offset="1" stop-color="#676067"/>
</linearGradient>
<linearGradient id="paint4_linear_1940_5785" x1="2.54061" y1="236.013" x2="2.54061" y2="177.207" gradientUnits="userSpaceOnUse">
<stop stop-color="#645F61"/>
<stop offset="0.05" stop-color="#2D1E2C"/>
<stop offset="0.52" stop-color="#3B323B"/>
<stop offset="0.96" stop-color="#2D1E2C"/>
<stop offset="1" stop-color="#4F494F"/>
</linearGradient>
<linearGradient id="paint5_linear_1940_5785" x1="-1568.25" y1="251.158" x2="-1568.25" y2="309.946" gradientUnits="userSpaceOnUse">
<stop stop-color="#68595F"/>
<stop offset="0.02" stop-color="#7F787D"/>
<stop offset="0.04" stop-color="#3D333C"/>
<stop offset="0.08" stop-color="#2D1E2C"/>
<stop offset="0.11" stop-color="#433641"/>
<stop offset="0.9" stop-color="#615060"/>
<stop offset="0.94" stop-color="#2D1E2C"/>
<stop offset="0.96" stop-color="#463945"/>
<stop offset="0.98" stop-color="#675862"/>
<stop offset="1" stop-color="#554F56"/>
</linearGradient>
<linearGradient id="paint6_linear_1940_5785" x1="0.321911" y1="251.176" x2="0.321911" y2="309.947" gradientUnits="userSpaceOnUse">
<stop stop-color="#676067"/>
<stop offset="0.06" stop-color="#504A50"/>
<stop offset="0.19" stop-color="#786F77"/>
<stop offset="0.81" stop-color="#786F77"/>
<stop offset="0.92" stop-color="#494248"/>
<stop offset="1" stop-color="#676067"/>
</linearGradient>
<linearGradient id="paint7_linear_1940_5785" x1="0.0010906" y1="309.964" x2="1.79734" y2="251.177" gradientUnits="userSpaceOnUse">
<stop stop-color="#68595F"/>
<stop offset="0.05" stop-color="#2D1E2C"/>
<stop offset="0.52" stop-color="#393138"/>
<stop offset="0.96" stop-color="#2D1E2C"/>
<stop offset="1" stop-color="#5B4A5C"/>
</linearGradient>
<linearGradient id="paint8_linear_1940_5785" x1="-1568.25" y1="121.645" x2="-1568.25" y2="151.828" gradientUnits="userSpaceOnUse">
<stop stop-color="#716C6E"/>
<stop offset="0.02" stop-color="#90898D"/>
<stop offset="0.04" stop-color="#433C42"/>
<stop offset="0.08" stop-color="#2D1E2C"/>
<stop offset="0.11" stop-color="#433A42"/>
<stop offset="0.9" stop-color="#696268"/>
<stop offset="0.94" stop-color="#2F2A2E"/>
<stop offset="0.96" stop-color="#665F65"/>
<stop offset="0.98" stop-color="#877C83"/>
<stop offset="1" stop-color="#5E6066"/>
</linearGradient>
<linearGradient id="paint9_linear_1940_5785" x1="0.321911" y1="121.663" x2="0.321911" y2="151.828" gradientUnits="userSpaceOnUse">
<stop stop-color="#676067"/>
<stop offset="0.06" stop-color="#5D555C"/>
<stop offset="0.19" stop-color="#786F77"/>
<stop offset="0.81" stop-color="#786F77"/>
<stop offset="0.92" stop-color="#403940"/>
<stop offset="1" stop-color="#676067"/>
</linearGradient>
<linearGradient id="paint10_linear_1940_5785" x1="0.0010899" y1="151.846" x2="2.5517" y2="121.664" gradientUnits="userSpaceOnUse">
<stop stop-color="#565052"/>
<stop offset="0.05" stop-color="#2D1E2C"/>
<stop offset="0.52" stop-color="#3F353E"/>
<stop offset="0.96" stop-color="#2D1E2C"/>
<stop offset="1" stop-color="#585259"/>
</linearGradient>
</defs>
</svg>
