<svg width="400" height="192" viewBox="0 0 400 192" fill="none" xmlns="http://www.w3.org/2000/svg">
<path d="M325.485 49.7923C325.454 51.627 325.195 53.5957 324.667 55.6366L317.02 85.2086L323.808 81.9824L332.75 47.3906L325.485 49.7923Z" fill="#D2F75A"/>
<path d="M306.551 58.5693H305.92L297.703 90.3575L302.081 88.1517C302.205 88.1517 302.443 87.2343 302.588 86.6777L309.045 61.6925C309.428 58.7549 308.838 58.5693 306.562 58.5693H306.551Z" fill="#D2F75A"/>
<path d="M356.898 58.9377H345.617L341.871 73.3991L385.398 52.7327L389.01 28.7988L364.525 36.8902H370.972L356.898 58.9377Z" fill="#D2F75A"/>
<path d="M63.656 96.2443L58.5022 81.3603C57.7778 78.7938 56.9809 75.4851 57.7468 72.5372L61.5965 57.6532C61.8863 56.5503 63.5939 55.8185 63.9768 55.8185C64.3597 55.8185 65.8189 56.5503 65.5291 57.6532L60.7272 76.2066L77.1405 66.6516L79.8001 56.3545C82.4598 46.0677 78.7653 36.3271 71.4176 36.3271H66.2225C58.999 36.3271 49.9127 44.9648 46.9736 56.3545L43.6931 69.0326C40.7023 80.6079 39.833 87.4108 42.6996 96.4092C44.2726 100.635 45.9801 105.779 47.5532 110.005C48.2051 112.396 48.9606 118.271 48.112 121.58L43.3102 140.144C42.8859 141.793 41.1369 142.164 40.7643 142.164C40.5056 142.164 39.0878 141.793 39.5639 139.958L46.125 114.602L29.4531 124.157L24.9824 141.432C22.271 151.904 25.9862 161.088 33.4684 161.088H38.7981C46.4044 161.088 54.8801 152.822 57.8813 141.246L62.9626 121.59C65.3428 112.406 66.1293 103.944 63.687 96.2339L63.656 96.2443Z" fill="white"/>
<path d="M105.177 105.784C103.5 106.886 86.9422 119.936 86.9422 119.936L81.9024 139.406C81.24 141.983 77.3075 141.983 78.1768 139.592L99.2263 58.1941C99.8472 55.8028 103.397 55.8028 102.952 58.0086L94.3002 91.4459L112.204 78.5822L118.092 55.8028C120.607 46.0622 116.788 36.332 109.565 36.332H104.235C97.0116 36.332 88.0703 44.4131 85.1208 55.8028L63.0261 141.241C60.1698 152.27 64.3611 161.083 71.9675 161.083H77.1626C84.5206 161.083 92.9963 152.816 95.9871 141.241L105.156 105.784H105.177Z" fill="white"/>
<path d="M139.614 36.8896L92.6406 160.187H109.499C112.314 151.735 116.339 139.614 119.341 130.976H125.302L120.789 160.187H136.633C142.346 121.421 148.048 75.8517 153.937 36.8896H139.614ZM129.048 112.041H125.498L133.156 89.808C133.042 90.7254 129.193 111.495 129.058 112.041H129.048Z" fill="white"/>
<path d="M200.218 55.9908C202.971 45.3329 198.697 36.8809 191.214 36.8809H172.193L140.309 160.178H155.904L166.884 117.732L170.196 115.712L178.599 110.198C186.764 104.137 189.724 96.6021 191.577 89.4384L200.228 55.9908H200.218ZM177.161 90.7269L172.545 93.85L181.238 60.2272C181.383 59.6706 182.666 59.1243 183.422 59.1243C184.053 59.1243 185.181 59.6706 185.036 60.2272L177.15 90.7269H177.161Z" fill="white"/>
<path d="M245.577 59.4835L251.424 36.8896H209.46L203.613 59.4835H216.673L190.625 160.177H206.479L232.517 59.4835H245.577Z" fill="white"/>
<path d="M275.883 36.8896L249.37 139.418C249.225 139.974 248.231 140.892 247.6 140.892H247.093C246.462 140.892 245.561 139.974 245.696 139.418L272.21 36.8896H256.997L229.955 141.438C227.151 152.281 231.208 161.094 238.949 161.094H245.292C252.516 161.094 261.519 152.281 264.324 141.438L291.365 36.8896H275.894H275.883Z" fill="white"/>
<path d="M297.724 58.9588L325.479 49.7852C325.614 42.0443 321.599 36.5195 315.658 36.5195H296.772L264.742 160.363H280.462L289.02 127.287L286.547 160.363H302.526L305.465 121.04C305.858 116.083 306.013 110.568 306.417 105.61C311.757 100.642 314.417 94.7668 316.642 86.6858L317.024 85.2015L287.592 99.1784L297.734 58.9588H297.724Z" fill="white"/>
<path d="M323.81 81.9713L303.578 160.174H330.713L344.829 137.941H325.176L333.207 106.895H340.182L354.298 84.6615H338.961L341.869 73.3955L323.81 81.9713Z" fill="white"/>
<path d="M335.469 36.8896L332.758 47.3826L364.529 36.8896H335.469Z" fill="white"/>
</svg>
