<svg width="40" height="40" viewBox="0 0 40 40" fill="none" xmlns="http://www.w3.org/2000/svg">
<path d="M11.3306 21.7477L23.2111 32.7148C23.4093 32.8979 23.6727 33 23.9465 33C24.2204 33 24.4838 32.8979 24.682 32.7148L24.6948 32.7024C24.7912 32.6136 24.868 32.5068 24.9205 32.3884C24.9729 32.27 25 32.1425 25 32.0136C25 31.8847 24.9729 31.7572 24.9205 31.6388C24.868 31.5204 24.7912 31.4135 24.6948 31.3248L13.5072 20.9979L24.6948 10.6752C24.7912 10.5865 24.868 10.4796 24.9205 10.3612C24.9729 10.2428 25 10.1153 25 9.98641C25 9.85755 24.9729 9.73003 24.9205 9.61162C24.868 9.4932 24.7912 9.38637 24.6948 9.29761L24.682 9.28522C24.4838 9.10213 24.2204 9 23.9465 9C23.6727 9 23.4093 9.10213 23.2111 9.28522L11.3306 20.2523C11.2262 20.3488 11.143 20.4648 11.0861 20.5933C11.0293 20.7218 11 20.8602 11 21C11 21.1398 11.0293 21.2782 11.0861 21.4067C11.143 21.5352 11.2262 21.6512 11.3306 21.7477Z" fill="#C5C6CB"/>
</svg>
