<svg width="25" height="24" viewBox="0 0 25 24" fill="none" xmlns="http://www.w3.org/2000/svg">
<g clip-path="url(#clip0_2058_11841)">
<path fill-rule="evenodd" clip-rule="evenodd" d="M23.0887 12.5864C23.0887 11.8604 23.0218 11.1632 22.8988 10.4931H13.0625V14.4522H18.6837C18.4416 15.7318 17.7056 16.8156 16.5997 17.5416V20.1094H19.9756C21.9503 18.3275 23.0897 15.7038 23.0897 12.5864H23.0887Z" fill="#3E82F1"/>
<path fill-rule="evenodd" clip-rule="evenodd" d="M13.064 22.5888C15.8839 22.5888 18.2483 21.6718 19.9761 20.1088L16.6002 17.541C15.6645 18.1553 14.469 18.5178 13.063 18.5178C10.3425 18.5178 8.04007 16.7176 7.21849 14.2983H3.73047V16.95C5.44939 20.2949 8.9807 22.5888 13.064 22.5888Z" fill="#32A753"/>
<path fill-rule="evenodd" clip-rule="evenodd" d="M7.21704 14.2987C7.00845 13.6844 6.88939 13.0288 6.88939 12.3538C6.88939 11.6788 7.00845 11.0232 7.21704 10.409V7.75732H3.72804C3.0206 9.13906 2.61719 10.7021 2.61719 12.3538C2.61719 14.0055 3.0206 15.5685 3.72804 16.9503L7.21704 14.2987Z" fill="#F9BB00"/>
<path fill-rule="evenodd" clip-rule="evenodd" d="M13.064 6.18902C14.597 6.18902 15.9744 6.70585 17.0568 7.71925L20.0528 4.78317C18.2434 3.13241 15.879 2.11804 13.064 2.11804C8.9807 2.11804 5.44939 4.41194 3.73047 7.75686L7.21947 10.4085C8.04105 7.98923 10.3434 6.18902 13.064 6.18902Z" fill="#E74133"/>
</g>
<defs>
<clipPath id="clip0_2058_11841">
<rect width="20.4706" height="20.4706" fill="white" transform="translate(2.61719 2.11761)"/>
</clipPath>
</defs>
</svg>
