<svg width="15" height="15" viewBox="0 0 15 15" fill="none" xmlns="http://www.w3.org/2000/svg">
<path fill-rule="evenodd" clip-rule="evenodd" d="M14.7 7.67081C14.7 7.13899 14.6523 6.62763 14.5636 6.13672H7.5V9.03785H11.5364C11.3625 9.97535 10.8341 10.7697 10.0398 11.3015V13.1833H12.4636C13.8818 11.8776 14.7 9.9549 14.7 7.67081Z" fill="#4285F4"/>
<path fill-rule="evenodd" clip-rule="evenodd" d="M7.50012 14.9998C9.52512 14.9998 11.2229 14.3282 12.4638 13.1828L10.0399 11.3009C9.36831 11.7509 8.50922 12.0168 7.50012 12.0168C5.54672 12.0168 3.89331 10.6975 3.30353 8.9248H0.797852V10.868C2.03194 13.3191 4.56831 14.9998 7.50012 14.9998Z" fill="#34A853"/>
<path fill-rule="evenodd" clip-rule="evenodd" d="M3.30341 8.92502C3.15341 8.47502 3.06818 7.99434 3.06818 7.50002C3.06818 7.0057 3.15341 6.52502 3.30341 6.07502V4.13184H0.797727C0.289773 5.14434 0 6.28979 0 7.50002C0 8.71024 0.289773 9.8557 0.797727 10.8682L3.30341 8.92502Z" fill="#FBBC05"/>
<path fill-rule="evenodd" clip-rule="evenodd" d="M7.50012 2.98295C8.60126 2.98295 9.5899 3.36136 10.3672 4.10455L12.5183 1.95341C11.2194 0.743182 9.52172 0 7.50012 0C4.56831 0 2.03194 1.68068 0.797852 4.13182L3.30353 6.075C3.89331 4.30227 5.54672 2.98295 7.50012 2.98295Z" fill="#EA4335"/>
</svg>
