<svg width="25" height="24" viewBox="0 0 25 24" fill="none" xmlns="http://www.w3.org/2000/svg">
<path d="M10.1902 19.0575H4.73828C4.7413 18.9463 4.74732 18.835 4.74732 18.7223C4.74732 14.2038 4.74732 9.68379 4.7413 5.16524C4.7413 5.00121 4.78198 4.94131 4.96884 4.94131C6.63094 4.94701 8.29154 4.94701 9.95365 4.94131C10.1646 4.94131 10.2882 5.03259 10.3937 5.18236C10.7613 5.70439 11.1275 6.22784 11.5012 6.74559C11.8719 7.25906 12.2577 7.76398 12.6284 8.27888C12.9946 8.78664 13.3487 9.30439 13.7149 9.81359C14.2167 10.5125 14.7215 11.2085 15.2308 11.9017C15.2685 11.9531 15.3574 11.973 15.4222 12.0073C15.4508 11.9445 15.502 11.8803 15.502 11.8176C15.502 11.6008 15.4734 11.384 15.4734 11.1657C15.4704 9.16462 15.4734 7.16493 15.4689 5.16381C15.4689 4.99836 15.5156 4.93988 15.7009 4.94131C17.3751 4.94844 19.0493 4.94559 20.7234 4.94559C20.954 4.94559 20.9736 4.96698 20.9736 5.19234C20.9721 8.69964 20.9721 12.2055 20.9675 15.7128C20.9675 16.8282 20.954 17.9436 20.948 19.0589H15.4207C15.3875 19.009 15.3574 18.9591 15.3227 18.9106C15.0891 18.5925 14.8526 18.2773 14.622 17.9578C14.2408 17.4301 13.864 16.8981 13.4828 16.3703C12.9644 15.6529 12.4461 14.9369 11.9247 14.2223C11.6504 13.8458 11.3686 13.4764 11.0974 13.097C10.8638 12.7718 10.6453 12.438 10.4132 12.1142C10.3741 12.06 10.2987 12.0286 10.24 11.9873C10.2189 12.0486 10.1797 12.1099 10.1797 12.1713C10.1857 12.5878 10.2113 13.0057 10.2098 13.4222C10.2068 15.3006 10.1978 17.1805 10.1917 19.0589L10.1902 19.0575Z" fill="white"/>
</svg>
