<svg width="76" height="28" viewBox="0 0 76 28" fill="none" xmlns="http://www.w3.org/2000/svg">
<path d="M62.5378 4.37339C62.5314 4.75562 62.4777 5.16577 62.3682 5.59095L60.7812 11.7518L62.1899 11.0797L64.0453 3.87305L62.5378 4.37339Z" fill="#D2F75A"/>
<path d="M58.6095 6.20215H58.4785L56.7734 12.8247L57.6818 12.3651C57.7076 12.3651 57.7569 12.174 57.787 12.0581L59.127 6.8528C59.2064 6.2408 59.084 6.20215 58.6116 6.20215H58.6095Z" fill="#D2F75A"/>
<path d="M69.0555 6.27894H66.7149L65.9375 9.29172L74.9694 4.98622L75.7188 0L70.6381 1.68569H71.9759L69.0555 6.27894Z" fill="#D2F75A"/>
<path d="M8.20835 14.0511L7.13895 10.9503C6.98863 10.4156 6.82328 9.72626 6.98219 9.11211L7.78102 6.01129C7.84114 5.78152 8.19546 5.62906 8.27492 5.62906C8.35437 5.62906 8.65715 5.78152 8.59702 6.01129L7.60064 9.87658L11.0064 7.88596L11.5583 5.74072C12.1101 3.59764 11.3435 1.56836 9.81889 1.56836H8.7409C7.24202 1.56836 5.35662 3.36787 4.74676 5.74072L4.06605 8.382C3.44545 10.7935 3.26508 12.2108 3.8599 14.0854C4.1863 14.9659 4.54061 16.0374 4.86702 16.9178C5.0023 17.416 5.15906 18.64 4.98298 19.3294L3.9866 23.1968C3.89855 23.5404 3.53564 23.6177 3.45833 23.6177C3.40465 23.6177 3.11046 23.5404 3.20924 23.1581L4.57068 17.8756L1.11125 19.8662L0.183578 23.4652C-0.379036 25.647 0.391876 27.5603 1.94443 27.5603H3.05033C4.62866 27.5603 6.38737 25.8381 7.01011 23.4266L8.06447 19.3315C8.55837 17.4182 8.72157 15.6552 8.21478 14.0489L8.20835 14.0511Z" fill="white"/>
<path d="M16.8239 16.0384C16.476 16.2682 13.0402 18.9867 13.0402 18.9867L11.9944 23.0431C11.857 23.58 11.041 23.58 11.2214 23.0818L15.5891 6.12393C15.718 5.62574 16.4545 5.62574 16.3622 6.08528L14.567 13.0514L18.282 10.3715L19.5038 5.62574C20.0256 3.59646 19.2332 1.56934 17.7344 1.56934H16.6285C15.1296 1.56934 13.2743 3.25288 12.6623 5.62574L8.0776 23.4254C7.48492 25.7231 8.35461 27.5591 9.93293 27.5591H11.0109C12.5377 27.5591 14.2964 25.8369 14.917 23.4254L16.8196 16.0384H16.8239Z" fill="white"/>
<path d="M23.9696 1.68555L14.2227 27.3725H17.7207C18.3048 25.6117 19.1402 23.0864 19.7629 21.2868H20.9998L20.0635 27.3725H23.3512C24.5365 19.2962 25.7197 9.80265 26.9416 1.68555H23.9696ZM21.7771 17.3421H21.0406L22.6296 12.7102C22.606 12.9013 21.8072 17.2283 21.7793 17.3421H21.7771Z" fill="white"/>
<path d="M36.5445 5.66484C37.1157 3.44445 36.2288 1.68359 34.6763 1.68359H30.7294L24.1133 27.3706H27.3494L29.6278 18.5277L30.3149 18.1068L32.0586 16.9579C33.7529 15.6953 34.367 14.1255 34.7514 12.6331L36.5466 5.66484H36.5445ZM31.7601 12.9015L30.8024 13.5522L32.6062 6.54741C32.6362 6.43145 32.9025 6.31764 33.0593 6.31764C33.1903 6.31764 33.4243 6.43145 33.3943 6.54741L31.758 12.9015H31.7601Z" fill="white"/>
<path d="M45.9573 6.39261L47.1706 1.68555H38.4629L37.2496 6.39261H39.9596L34.5547 27.3704H37.8445L43.2473 6.39261H45.9573Z" fill="white"/>
<path d="M52.2458 1.68555L46.7442 23.0456C46.7141 23.1615 46.508 23.3526 46.377 23.3526H46.2718C46.1408 23.3526 45.954 23.1615 45.9819 23.0456L51.4835 1.68555H48.3268L42.7157 23.4664C42.1338 25.7255 42.9756 27.5615 44.5818 27.5615H45.8981C47.397 27.5615 49.2652 25.7255 49.8472 23.4664L55.4583 1.68555H52.2479H52.2458Z" fill="white"/>
<path d="M56.7773 6.28325L62.5366 4.37208C62.5645 2.7594 61.7313 1.6084 60.4987 1.6084H56.5797L49.9336 27.4092H53.1955L54.9713 20.5182L54.4581 27.4092H57.7737L58.3835 19.2169C58.4651 18.184 58.4973 17.0352 58.5811 16.0023C59.6891 14.9673 60.241 13.7433 60.7027 12.0597L60.7822 11.7505L54.675 14.6623L56.7794 6.28325H56.7773Z" fill="white"/>
<path d="M62.1903 11.0776L57.9922 27.3698H63.6226L66.5517 22.7379H62.4738L64.1401 16.27H65.5875L68.5165 11.6381H65.3341L65.9375 9.29102L62.1903 11.0776Z" fill="white"/>
<path d="M64.6095 1.68555L64.0469 3.87158L70.6393 1.68555H64.6095Z" fill="white"/>
</svg>
