<svg width="180" height="86" viewBox="0 0 180 86" fill="none" xmlns="http://www.w3.org/2000/svg">
<path d="M146.47 22.3028C146.456 23.1246 146.339 24.0065 146.102 24.9206L142.66 38.1664L145.715 36.7213L149.739 21.2271L146.47 22.3028Z" fill="#D2F75A"/>
<path d="M137.95 26.2368H137.666L133.969 40.4752L135.939 39.4872C135.995 39.4872 136.102 39.0763 136.167 38.827L139.073 27.6357C139.245 26.3199 138.98 26.2368 137.955 26.2368H137.95Z" fill="#D2F75A"/>
<path d="M160.602 26.3998H155.526L153.84 32.8772L173.427 23.6204L175.052 12.9L164.034 16.5243H166.935L160.602 26.3998Z" fill="#D2F75A"/>
<path d="M28.645 43.1099L26.3258 36.4431C25.9998 35.2935 25.6412 33.8115 25.9858 32.4911L27.7182 25.8243C27.8486 25.3303 28.617 25.0025 28.7894 25.0025C28.9617 25.0025 29.6183 25.3303 29.4879 25.8243L27.3271 34.1347L34.713 29.8549L35.9099 25.2426C37.1067 20.635 35.4442 16.272 32.1377 16.272H29.7999C26.5493 16.272 22.4605 20.141 21.1379 25.2426L19.6617 30.9214C18.3158 36.1061 17.9246 39.1532 19.2146 43.1838C19.9225 45.0767 20.6909 47.3805 21.3987 49.2734C21.6921 50.3445 22.0321 52.9762 21.6502 54.4582L19.4894 62.7732C19.2984 63.5119 18.5114 63.6781 18.3438 63.6781C18.2273 63.6781 17.5893 63.5118 17.8035 62.69L20.7561 51.3326L13.2537 55.6124L11.2419 63.3503C10.0217 68.041 11.6936 72.1546 15.0606 72.1546H17.4589C20.8818 72.1546 24.6959 68.4519 26.0464 63.2672L28.333 54.4628C29.4041 50.3492 29.758 46.5587 28.6589 43.1053L28.645 43.1099Z" fill="#2458EC"/>
<path d="M47.3304 47.3847C46.5759 47.8787 39.1248 53.7236 39.1248 53.7236L36.8568 62.4449C36.5588 63.5991 34.7891 63.5991 35.1803 62.528L44.6526 26.0686C44.932 24.9974 46.5294 24.9975 46.3291 25.9855L42.4359 40.9626L50.4924 35.2007L53.1423 24.9975C54.2739 20.6345 52.5555 16.2762 49.3049 16.2762H46.9066C43.656 16.2762 39.6324 19.8958 38.3052 24.9975L28.3625 63.2667C27.0772 68.2067 28.9633 72.1542 32.3861 72.1542H34.7239C38.0351 72.1542 41.8491 68.4514 43.195 63.2667L47.3211 47.3847H47.3304Z" fill="#2458EC"/>
<path d="M62.8255 16.5239L41.6875 71.7509H49.2737C50.5404 67.9651 52.352 62.5357 53.7025 58.6667H56.3849L54.3545 71.7509H61.4843C64.0549 54.3869 66.6209 33.9757 69.2707 16.5239H62.8255ZM58.0707 50.1855H56.4734L59.9195 40.2269C59.8683 40.6378 58.1359 49.9408 58.0754 50.1855H58.0707Z" fill="#2458EC"/>
<path d="M90.0959 25.0795C91.3347 20.3056 89.4114 16.5198 86.0444 16.5198H77.4848L63.1367 71.7468H70.1548L75.0958 52.7345L76.5861 51.8296L80.3675 49.3596C84.0419 46.6449 85.3738 43.2699 86.2073 40.0612L90.1006 25.0795H90.0959ZM79.7202 40.6383L77.6432 42.0372L81.555 26.977C81.6202 26.7277 82.1977 26.483 82.5377 26.483C82.8217 26.483 83.3293 26.7277 83.2641 26.977L79.7155 40.6383H79.7202Z" fill="#2458EC"/>
<path d="M110.51 26.6441L113.141 16.5239H94.2569L91.6257 26.6441H97.5028L85.7812 71.7463H92.9157L104.633 26.6441H110.51Z" fill="#2458EC"/>
<path d="M124.15 16.5239L112.219 62.4479C112.153 62.6973 111.706 63.1081 111.422 63.1081H111.194C110.91 63.1081 110.505 62.6973 110.565 62.4479L122.496 16.5239H115.651L103.482 63.3528C102.22 68.2098 104.046 72.1572 107.529 72.1572H110.384C113.634 72.1572 117.686 68.2098 118.948 63.3528L131.117 16.5239H124.154H124.15Z" fill="#2458EC"/>
<path d="M133.975 26.4111L146.465 22.3021C146.525 18.8348 144.718 16.3602 142.045 16.3602H133.546L119.133 71.8319H126.207L130.058 57.0163L128.945 71.8319H136.135L137.458 54.2185C137.635 51.9978 137.705 49.5278 137.886 47.3071C140.289 45.0817 141.486 42.4501 142.488 38.8305L142.66 38.1656L129.415 44.4261L133.979 26.4111H133.975Z" fill="#2458EC"/>
<path d="M145.714 36.717L136.609 71.7452H148.82L155.172 61.7866H146.328L149.942 47.8806H153.081L159.433 37.922H152.532L153.84 32.8757L145.714 36.717Z" fill="#2458EC"/>
<path d="M150.962 16.5239L149.742 21.2239L164.039 16.5239H150.962Z" fill="#2458EC"/>
</svg>
