<svg width="180" height="180" viewBox="0 0 180 180" fill="none" xmlns="http://www.w3.org/2000/svg">
<g opacity="0.5">
<path d="M6 51.0538C6 42.7398 12.7157 36 21 36H159C167.284 36 174 42.7398 174 51.0538V129.333C174 137.647 167.284 144.387 159 144.387H21C12.7157 144.387 6 137.647 6 129.333V51.0538Z" fill="url(#paint0_linear_2098_8514)"/>
<path fill-rule="evenodd" clip-rule="evenodd" d="M159 36.7527H21C13.1299 36.7527 6.75 43.1555 6.75 51.0538V129.333C6.75 137.232 13.1299 143.634 21 143.634H159C166.87 143.634 173.25 137.232 173.25 129.333V51.0538C173.25 43.1555 166.87 36.7527 159 36.7527ZM21 36C12.7157 36 6 42.7398 6 51.0538V129.333C6 137.647 12.7157 144.387 21 144.387H159C167.284 144.387 174 137.647 174 129.333V51.0538C174 42.7398 167.284 36 159 36H21Z" fill="url(#paint1_linear_2098_8514)"/>
<path fill-rule="evenodd" clip-rule="evenodd" d="M156 43.5278H24C18.201 43.5278 13.5 48.2457 13.5 54.0655V126.324C13.5 132.143 18.201 136.861 24 136.861H156C161.799 136.861 166.5 132.143 166.5 126.324V54.0655C166.5 48.2457 161.799 43.5278 156 43.5278ZM24 42.0225C17.3726 42.0225 12 47.4143 12 54.0655V126.324C12 132.975 17.3726 138.367 24 138.367H156C162.627 138.367 168 132.975 168 126.324V54.0655C168 47.4143 162.627 42.0225 156 42.0225H24Z" fill="white"/>
<path d="M90 42.0225H91.5V136.861H90V42.0225Z" fill="white"/>
<path fill-rule="evenodd" clip-rule="evenodd" d="M90.7578 108.26C100.285 108.26 108.008 100.509 108.008 90.9481C108.008 81.387 100.285 73.6362 90.7578 73.6362C81.2309 73.6362 73.5078 81.387 73.5078 90.9481C73.5078 100.509 81.2309 108.26 90.7578 108.26ZM90.7578 109.765C101.113 109.765 109.508 101.341 109.508 90.9481C109.508 80.5556 101.113 72.1309 90.7578 72.1309C80.4025 72.1309 72.0078 80.5556 72.0078 90.9481C72.0078 101.341 80.4025 109.765 90.7578 109.765Z" fill="white"/>
<path fill-rule="evenodd" clip-rule="evenodd" d="M37.5 63.0991H13.5V118.798H37.5V63.0991ZM12 61.5938V120.303H39V61.5938H12Z" fill="white"/>
<path fill-rule="evenodd" clip-rule="evenodd" d="M166.496 63.0991H142.496V118.798H166.496V63.0991ZM140.996 61.5938V120.303H167.996V61.5938H140.996Z" fill="white"/>
</g>
<defs>
<linearGradient id="paint0_linear_2098_8514" x1="-17.25" y1="25.4624" x2="201.39" y2="151.237" gradientUnits="userSpaceOnUse">
<stop stop-color="#D2F75A"/>
<stop offset="1" stop-color="#4285F4"/>
</linearGradient>
<linearGradient id="paint1_linear_2098_8514" x1="11.25" y1="32.9893" x2="166.109" y2="140.105" gradientUnits="userSpaceOnUse">
<stop stop-color="#E9FFB7"/>
<stop offset="1" stop-color="#73B8F2"/>
</linearGradient>
</defs>
</svg>
