<svg width="30" height="30" viewBox="0 0 30 30" fill="none" xmlns="http://www.w3.org/2000/svg">
<path d="M27.5 0H2.5C1.83696 0 1.20107 0.263392 0.732233 0.732233C0.263392 1.20107 0 1.83696 0 2.5V27.5C0 28.163 0.263392 28.7989 0.732233 29.2678C1.20107 29.7366 1.83696 30 2.5 30H27.5C28.163 30 28.7989 29.7366 29.2678 29.2678C29.7366 28.7989 30 28.163 30 27.5V2.5C30 1.83696 29.7366 1.20107 29.2678 0.732233C28.7989 0.263392 28.163 0 27.5 0ZM2.5 2.5H27.5V14.5906L23.6422 10.7312C23.1734 10.2628 22.5378 9.9996 21.875 9.9996C21.2122 9.9996 20.5766 10.2628 20.1078 10.7312L3.33906 27.5H2.5V2.5ZM7.5 10C7.5 9.50555 7.64662 9.0222 7.92133 8.61107C8.19603 8.19995 8.58648 7.87952 9.04329 7.6903C9.50011 7.50108 10.0028 7.45157 10.4877 7.54804C10.9727 7.6445 11.4181 7.8826 11.7678 8.23223C12.1174 8.58186 12.3555 9.02732 12.452 9.51227C12.5484 9.99723 12.4989 10.4999 12.3097 10.9567C12.1205 11.4135 11.8 11.804 11.3889 12.0787C10.9778 12.3534 10.4945 12.5 10 12.5C9.33696 12.5 8.70107 12.2366 8.23223 11.7678C7.76339 11.2989 7.5 10.663 7.5 10Z" fill="#75777F"/>
</svg>
