<svg width="20" height="20" viewBox="0 0 20 20" fill="none" xmlns="http://www.w3.org/2000/svg">
<path d="M10.4361 6.18894L16.8336 12.9777C16.9404 13.091 17 13.2415 17 13.398C17 13.5545 16.9404 13.705 16.8336 13.8183L16.8264 13.8256C16.7746 13.8807 16.7123 13.9246 16.6432 13.9546C16.5742 13.9845 16.4998 14 16.4246 14C16.3494 14 16.275 13.9845 16.206 13.9546C16.1369 13.9246 16.0746 13.8807 16.0228 13.8256L9.9988 7.43268L3.97721 13.8256C3.92543 13.8807 3.86312 13.9246 3.79404 13.9546C3.72496 13.9845 3.65058 14 3.57541 14C3.50024 14 3.42585 13.9845 3.35678 13.9546C3.2877 13.9246 3.22538 13.8807 3.17361 13.8256L3.16638 13.8183C3.05958 13.705 3 13.5545 3 13.398C3 13.2415 3.05958 13.091 3.16638 12.9778L9.56386 6.18894C9.62012 6.12923 9.68779 6.0817 9.76276 6.04922C9.83773 6.01675 9.91844 6 10 6C10.0816 6 10.1623 6.01675 10.2372 6.04922C10.3122 6.0817 10.3799 6.12923 10.4361 6.18894Z" fill="#D9DADD"/>
</svg>
