<svg width="14" height="24" viewBox="0 0 14 24" fill="none" xmlns="http://www.w3.org/2000/svg">
<path d="M0.330642 12.7477L12.2111 23.7148C12.4093 23.8979 12.6727 24 12.9465 24C13.2204 24 13.4838 23.8979 13.682 23.7148L13.6948 23.7024C13.7912 23.6136 13.868 23.5068 13.9205 23.3884C13.9729 23.27 14 23.1425 14 23.0136C14 22.8847 13.9729 22.7572 13.9205 22.6388C13.868 22.5204 13.7912 22.4135 13.6948 22.3248L2.50719 11.9979L13.6948 1.67521C13.7912 1.58646 13.868 1.47962 13.9205 1.36121C13.9729 1.2428 14 1.11528 14 0.986414C14 0.857548 13.9729 0.73003 13.9205 0.611616C13.868 0.493202 13.7912 0.386368 13.6948 0.297613L13.682 0.285219C13.4838 0.102135 13.2204 -1.73703e-07 12.9465 -2.09617e-07C12.6727 -2.45531e-07 12.4093 0.102134 12.2111 0.285219L0.330642 11.2523C0.226158 11.3488 0.142978 11.4648 0.0861429 11.5933C0.029308 11.7218 1.59194e-06 11.8602 1.57361e-06 12C1.55527e-06 12.1398 0.0293079 12.2782 0.0861428 12.4067C0.142978 12.5352 0.226158 12.6512 0.330642 12.7477Z" fill="#F9FAFE"/>
</svg>
