<svg width="16" height="17" viewBox="0 0 16 17" fill="none" xmlns="http://www.w3.org/2000/svg">
<path d="M12.0006 2.03151C12.737 1.31889 13.9309 1.31889 14.6673 2.03151V2.03151C15.4037 2.74414 15.4037 3.89953 14.6673 4.61216L6.56428 12.4538C6.36614 12.6455 6.26707 12.7414 6.15617 12.8228C6.10356 12.8614 6.04904 12.8975 5.9928 12.9309C5.87424 13.0015 5.746 13.0561 5.48952 13.1653V13.1653C4.02003 13.791 3.28529 14.1038 2.85616 13.8928C2.66421 13.7984 2.5082 13.6474 2.41064 13.4616C2.19255 13.0464 2.51583 12.3353 3.16241 10.9132V10.9132C3.27526 10.665 3.33168 10.5409 3.40457 10.4262C3.43915 10.3718 3.47645 10.319 3.51633 10.2681C3.60041 10.1608 3.69948 10.0649 3.89762 9.87313L12.0006 2.03151Z" stroke="#D9D9D9" stroke-linecap="round"/>
<path d="M9.93164 4.00879L12.5983 6.58943" stroke="#D9D9D9"/>
</svg>
