<svg width="28" height="28" viewBox="0 0 28 28" fill="none" xmlns="http://www.w3.org/2000/svg">
<circle cx="14" cy="14" r="14" fill="#2458EC"/>
<path d="M13 8.41406C13 7.86178 13.4477 7.41406 14 7.41406C14.5523 7.41406 15 7.86178 15 8.41406V21.4141C15 21.9663 14.5523 22.4141 14 22.4141C13.4477 22.4141 13 21.9663 13 21.4141V8.41406Z" fill="#EFF0F4"/>
<path fill-rule="evenodd" clip-rule="evenodd" d="M12.5858 7.41421C13.3668 6.63317 14.6332 6.63316 15.4142 7.41421L21.0711 13.0711C21.4616 13.4616 21.4616 14.0948 21.0711 14.4853C20.6805 14.8758 20.0474 14.8758 19.6569 14.4853L14 8.82843L8.34315 14.4853C7.95262 14.8758 7.31946 14.8758 6.92893 14.4853C6.53841 14.0948 6.53841 13.4616 6.92893 13.0711L12.5858 7.41421Z" fill="#EFF0F4"/>
</svg>
