<svg width="300" height="250" viewBox="0 0 300 250" fill="none" xmlns="http://www.w3.org/2000/svg">
<rect width="300" height="250" rx="8" fill="#101010"/>
<path d="M210.792 101.643C210.776 102.573 210.645 103.571 210.377 104.606L206.5 119.598L209.942 117.963L214.475 100.426L210.792 101.643Z" fill="#D2F75A"/>
<path d="M201.197 106.093H200.877L196.711 122.208L198.93 121.09C198.993 121.09 199.114 120.625 199.187 120.343L202.461 107.676C202.655 106.187 202.356 106.093 201.202 106.093H201.197Z" fill="#D2F75A"/>
<path d="M226.72 106.28H221.001L219.102 113.611L241.169 103.134L243 91L230.586 95.1021H233.855L226.72 106.28Z" fill="#D2F75A"/>
<path d="M78.0549 125.193L75.4421 117.647C75.0749 116.346 74.6709 114.669 75.0591 113.174L77.0108 105.628C77.1577 105.069 78.0234 104.698 78.2176 104.698C78.4117 104.698 79.1514 105.069 79.0045 105.628L76.5701 115.034L84.8912 110.19L86.2395 104.97C87.5879 99.7548 85.7149 94.8167 81.9898 94.8167H79.3561C75.694 94.8167 71.0875 99.1957 69.5975 104.97L67.9343 111.397C66.418 117.266 65.9773 120.715 67.4306 125.276C68.2281 127.419 69.0938 130.027 69.8913 132.169C70.2218 133.381 70.6048 136.36 70.1746 138.037L67.7402 147.449C67.5251 148.285 66.6384 148.473 66.4495 148.473C66.3184 148.473 65.5996 148.285 65.8409 147.355L69.1672 134.5L60.715 139.344L58.4485 148.102C57.0739 153.411 58.9574 158.067 62.7507 158.067H65.4527C69.3089 158.067 73.6058 153.876 75.1273 148.008L77.7034 138.043C78.9101 133.387 79.3088 129.096 78.0706 125.188L78.0549 125.193Z" fill="white"/>
<path d="M99.1073 130.029C98.2574 130.588 89.8629 137.204 89.8629 137.204L87.3078 147.075C86.972 148.381 84.9783 148.381 85.419 147.169L96.0905 105.903C96.4053 104.69 98.2049 104.69 97.9793 105.808L93.5932 122.76L102.67 116.239L105.655 104.69C106.93 99.752 104.994 94.8191 101.332 94.8191H98.6298C94.9677 94.8191 90.4347 98.9159 88.9395 104.69L77.7381 148.005C76.29 153.596 78.4149 158.064 82.2711 158.064H84.9049C88.6352 158.064 92.9321 153.873 94.4484 148.005L99.0968 130.029H99.1073Z" fill="white"/>
<path d="M116.564 95.1018L92.75 157.61H101.297C102.724 153.325 104.765 147.18 106.286 142.801H109.308L107.021 157.61H115.053C117.949 137.957 120.84 114.854 123.825 95.1018H116.564ZM111.207 133.201H109.408L113.29 121.93C113.233 122.395 111.281 132.924 111.213 133.201H111.207Z" fill="white"/>
<path d="M147.286 104.785C148.682 99.3823 146.515 95.0973 142.722 95.0973H133.079L116.914 157.606H124.821L130.387 136.087L132.066 135.062L136.326 132.267C140.466 129.194 141.966 125.374 142.905 121.742L147.292 104.785H147.286ZM135.597 122.396L133.257 123.979L137.664 106.933C137.738 106.651 138.388 106.374 138.771 106.374C139.091 106.374 139.663 106.651 139.59 106.933L135.592 122.396H135.597Z" fill="white"/>
<path d="M170.281 106.556L173.245 95.1018H151.971L149.006 106.556H155.627L142.422 157.605H150.46L163.66 106.556H170.281Z" fill="white"/>
<path d="M185.641 95.1018L172.199 147.081C172.126 147.363 171.622 147.828 171.302 147.828H171.045C170.725 147.828 170.269 147.363 170.337 147.081L183.779 95.1018H176.066L162.357 148.105C160.935 153.602 162.992 158.07 166.916 158.07H170.132C173.794 158.07 178.359 153.602 179.781 148.105L193.49 95.1018H185.646H185.641Z" fill="white"/>
<path d="M196.721 106.29L210.792 101.64C210.86 97.7152 208.825 94.9143 205.813 94.9143H196.238L180 157.7H187.97L192.308 140.931L191.054 157.7H199.155L200.645 137.764C200.845 135.25 200.923 132.455 201.128 129.941C203.835 127.423 205.183 124.444 206.311 120.347L206.506 119.595L191.584 126.681L196.726 106.29H196.721Z" fill="white"/>
<path d="M209.945 117.957L199.688 157.603H213.444L220.6 146.332H210.637L214.708 130.592H218.245L225.401 119.321H217.625L219.1 113.609L209.945 117.957Z" fill="white"/>
<path d="M215.859 95.1018L214.484 100.421L230.591 95.1018H215.859Z" fill="white"/>
</svg>
