<svg width="52" height="52" viewBox="0 0 52 52" fill="none" xmlns="http://www.w3.org/2000/svg">
<rect width="52" height="52" rx="12" fill="#FEDC85"/>
<rect x="14.7539" y="12" width="23.9658" height="14.1787" rx="3" transform="rotate(3.05284 14.7539 12)" fill="#FFB048"/>
<g filter="url(#filter0_b_3114_8240)">
<path d="M9.7659 25.6944C9.52628 22.8694 11.6221 20.3851 14.4471 20.1455L36.4288 18.281C39.2538 18.0414 41.7381 20.1372 41.9777 22.9622L42.7495 32.0612C42.9891 34.8862 40.8933 37.3705 38.0683 37.6102L16.0866 39.4747C13.2616 39.7143 10.7773 37.6184 10.5377 34.7934L9.7659 25.6944Z" fill="url(#paint0_linear_3114_8240)"/>
</g>
<g filter="url(#filter1_b_3114_8240)">
<path fill-rule="evenodd" clip-rule="evenodd" d="M36.4722 18.7925L14.4905 20.657C11.948 20.8726 10.0617 23.1086 10.2774 25.651L11.0492 34.7501C11.2648 37.2925 13.5008 39.1788 16.0432 38.9631L38.0249 37.0986C40.5674 36.883 42.4536 34.6471 42.238 32.1046L41.4662 23.0056C41.2506 20.4631 39.0146 18.5768 36.4722 18.7925ZM14.4471 20.1455C11.6221 20.3851 9.52628 22.8694 9.7659 25.6944L10.5377 34.7934C10.7773 37.6184 13.2616 39.7143 16.0866 39.4747L38.0683 37.6102C40.8933 37.3705 42.9891 34.8862 42.7495 32.0612L41.9777 22.9622C41.7381 20.1372 39.2538 18.0414 36.4288 18.281L14.4471 20.1455Z" fill="#FFFAE6"/>
</g>
<path d="M29.556 31.4243C29.5783 31.6483 29.5513 31.8745 29.4769 32.087C29.4025 32.2994 29.2824 32.493 29.1252 32.6542C28.968 32.8153 28.7774 32.9401 28.5669 33.0197C28.3563 33.0994 28.1309 33.1319 27.9064 33.1152C27.6819 33.0984 27.4638 33.0327 27.2674 32.9227C27.071 32.8127 26.901 32.661 26.7695 32.4783C26.6379 32.2956 26.548 32.0863 26.5059 31.8651C26.4639 31.644 26.4708 31.4163 26.5261 31.1981L24.1222 29.971C23.9274 30.2042 23.6681 30.3746 23.3769 30.461C23.0856 30.5473 22.7753 30.5457 22.485 30.4564C22.1946 30.3671 21.9371 30.194 21.7447 29.9589C21.5523 29.7238 21.4337 29.4371 21.4036 29.1348C21.3736 28.8325 21.4335 28.528 21.5758 28.2596C21.7181 27.9912 21.9365 27.7708 22.2036 27.6261C22.4707 27.4814 22.7746 27.4187 23.0771 27.446C23.3797 27.4733 23.6675 27.5894 23.9043 27.7796L26.0198 26.1054C25.8551 25.7627 25.8224 25.3714 25.928 25.0061C26.0335 24.6408 26.27 24.3273 26.5922 24.1253C26.9144 23.9234 27.2996 23.8473 27.6744 23.9114C28.0492 23.9756 28.3872 24.1756 28.6238 24.4733C28.8604 24.7709 28.979 25.1453 28.9571 25.5249C28.9351 25.9045 28.774 26.2627 28.5046 26.531C28.2352 26.7993 27.8764 26.959 27.4967 26.9795C27.1171 27 26.7432 26.8799 26.4465 26.6421L24.3312 28.3184C24.4868 28.6438 24.5236 29.0134 24.435 29.363L26.8389 30.59C27.0337 30.3574 27.2927 30.1875 27.5836 30.1013C27.8744 30.0152 28.1842 30.0167 28.4742 30.1058C28.7642 30.1948 29.0215 30.3674 29.2139 30.6019C29.4064 30.8364 29.5253 31.1225 29.556 31.4243Z" fill="#FFFEDE"/>
<defs>
<filter id="filter0_b_3114_8240" x="7.74609" y="16.2622" width="37.0234" height="25.2312" filterUnits="userSpaceOnUse" color-interpolation-filters="sRGB">
<feFlood flood-opacity="0" result="BackgroundImageFix"/>
<feGaussianBlur in="BackgroundImageFix" stdDeviation="1"/>
<feComposite in2="SourceAlpha" operator="in" result="effect1_backgroundBlur_3114_8240"/>
<feBlend mode="normal" in="SourceGraphic" in2="effect1_backgroundBlur_3114_8240" result="shape"/>
</filter>
<filter id="filter1_b_3114_8240" x="-0.253906" y="8.26221" width="53.0234" height="41.2312" filterUnits="userSpaceOnUse" color-interpolation-filters="sRGB">
<feFlood flood-opacity="0" result="BackgroundImageFix"/>
<feGaussianBlur in="BackgroundImageFix" stdDeviation="5"/>
<feComposite in2="SourceAlpha" operator="in" result="effect1_backgroundBlur_3114_8240"/>
<feBlend mode="normal" in="SourceGraphic" in2="effect1_backgroundBlur_3114_8240" result="shape"/>
</filter>
<linearGradient id="paint0_linear_3114_8240" x1="14.4134" y1="25.8228" x2="27.8535" y2="41.1762" gradientUnits="userSpaceOnUse">
<stop stop-color="#FFC32B" stop-opacity="0.8"/>
<stop offset="1" stop-color="#FFF9DE" stop-opacity="0.8"/>
</linearGradient>
</defs>
</svg>
