<svg width="40" height="40" viewBox="0 0 40 40" fill="none" xmlns="http://www.w3.org/2000/svg">
<rect x="8.75391" y="6" width="23.9658" height="14.1787" rx="3" transform="rotate(3.05284 8.75391 6)" fill="url(#paint0_linear_3114_8231)"/>
<g filter="url(#filter0_b_3114_8231)">
<path d="M3.7659 19.6944C3.52628 16.8694 5.62213 14.3851 8.44711 14.1455L30.4288 12.281C33.2538 12.0414 35.7381 14.1372 35.9777 16.9622L36.7495 26.0612C36.9891 28.8862 34.8933 31.3705 32.0683 31.6102L10.0866 33.4747C7.26164 33.7143 4.7773 31.6184 4.53768 28.7934L3.7659 19.6944Z" fill="url(#paint1_linear_3114_8231)"/>
</g>
<g filter="url(#filter1_b_3114_8231)">
<path fill-rule="evenodd" clip-rule="evenodd" d="M30.4722 12.7925L8.4905 14.657C5.94801 14.8726 4.06175 17.1086 4.2774 19.651L5.04919 28.7501C5.26484 31.2925 7.50075 33.1788 10.0432 32.9631L32.0249 31.0986C34.5674 30.883 36.4536 28.6471 36.238 26.1046L35.4662 17.0056C35.2506 14.4631 33.0146 12.5768 30.4722 12.7925ZM8.44711 14.1455C5.62213 14.3851 3.52628 16.8694 3.7659 19.6944L4.53768 28.7934C4.7773 31.6184 7.26164 33.7143 10.0866 33.4747L32.0683 31.6102C34.8933 31.3705 36.9891 28.8862 36.7495 26.0612L35.9777 16.9622C35.7381 14.1372 33.2538 12.0414 30.4288 12.281L8.44711 14.1455Z" fill="#E9EFFF"/>
</g>
<path d="M23.556 25.4243C23.5783 25.6483 23.5513 25.8745 23.4769 26.087C23.4025 26.2994 23.2824 26.493 23.1252 26.6542C22.968 26.8153 22.7774 26.9401 22.5669 27.0197C22.3563 27.0994 22.1309 27.1319 21.9064 27.1152C21.6819 27.0984 21.4638 27.0327 21.2674 26.9227C21.071 26.8127 20.901 26.661 20.7695 26.4783C20.6379 26.2956 20.548 26.0863 20.5059 25.8651C20.4639 25.644 20.4708 25.4163 20.5261 25.1981L18.1222 23.971C17.9274 24.2042 17.6681 24.3746 17.3769 24.461C17.0856 24.5473 16.7753 24.5457 16.485 24.4564C16.1946 24.3671 15.9371 24.194 15.7447 23.9589C15.5523 23.7238 15.4337 23.4371 15.4036 23.1348C15.3736 22.8325 15.4335 22.528 15.5758 22.2596C15.7181 21.9912 15.9365 21.7708 16.2036 21.6261C16.4707 21.4814 16.7746 21.4187 17.0771 21.446C17.3797 21.4733 17.6675 21.5894 17.9043 21.7796L20.0198 20.1054C19.8551 19.7627 19.8224 19.3714 19.928 19.0061C20.0335 18.6408 20.27 18.3273 20.5922 18.1253C20.9144 17.9234 21.2996 17.8473 21.6744 17.9114C22.0492 17.9756 22.3872 18.1756 22.6238 18.4733C22.8604 18.7709 22.979 19.1453 22.9571 19.5249C22.9351 19.9045 22.774 20.2627 22.5046 20.531C22.2352 20.7993 21.8764 20.959 21.4967 20.9795C21.1171 21 20.7432 20.8799 20.4465 20.6421L18.3312 22.3184C18.4868 22.6438 18.5236 23.0134 18.435 23.363L20.8389 24.59C21.0337 24.3574 21.2927 24.1875 21.5836 24.1013C21.8744 24.0152 22.1842 24.0167 22.4742 24.1058C22.7642 24.1948 23.0215 24.3674 23.2139 24.6019C23.4064 24.8364 23.5253 25.1225 23.556 25.4243Z" fill="#E9EFFF"/>
<defs>
<filter id="filter0_b_3114_8231" x="1.74609" y="10.2622" width="37.0234" height="25.2312" filterUnits="userSpaceOnUse" color-interpolation-filters="sRGB">
<feFlood flood-opacity="0" result="BackgroundImageFix"/>
<feGaussianBlur in="BackgroundImageFix" stdDeviation="1"/>
<feComposite in2="SourceAlpha" operator="in" result="effect1_backgroundBlur_3114_8231"/>
<feBlend mode="normal" in="SourceGraphic" in2="effect1_backgroundBlur_3114_8231" result="shape"/>
</filter>
<filter id="filter1_b_3114_8231" x="-6.25391" y="2.26221" width="53.0234" height="41.2312" filterUnits="userSpaceOnUse" color-interpolation-filters="sRGB">
<feFlood flood-opacity="0" result="BackgroundImageFix"/>
<feGaussianBlur in="BackgroundImageFix" stdDeviation="5"/>
<feComposite in2="SourceAlpha" operator="in" result="effect1_backgroundBlur_3114_8231"/>
<feBlend mode="normal" in="SourceGraphic" in2="effect1_backgroundBlur_3114_8231" result="shape"/>
</filter>
<linearGradient id="paint0_linear_3114_8231" x1="33.377" y1="18.7067" x2="16.5855" y2="-3.21678" gradientUnits="userSpaceOnUse">
<stop stop-color="#4285F4"/>
<stop offset="1" stop-color="#D2F75A"/>
</linearGradient>
<linearGradient id="paint1_linear_3114_8231" x1="30.1014" y1="27.8833" x2="2.4918" y2="11.4355" gradientUnits="userSpaceOnUse">
<stop stop-color="white" stop-opacity="0.3"/>
<stop offset="1" stop-color="#F2FFCA" stop-opacity="0.8"/>
</linearGradient>
</defs>
</svg>
