<svg width="80" height="80" viewBox="0 0 80 80" fill="none" xmlns="http://www.w3.org/2000/svg">
<path d="M66.6654 45.3327C66.6654 60.0603 54.7263 71.9994 39.9987 71.9994C25.2711 71.9994 13.332 60.0603 13.332 45.3327C13.332 30.6051 25.2711 18.666 39.9987 18.666C54.7263 18.666 66.6654 30.6051 66.6654 45.3327Z" fill="url(#paint0_linear_3577_11733)"/>
<g filter="url(#filter0_b_3577_11733)">
<path d="M48 12C48 9.79086 49.7909 8 52 8C54.2091 8 56 9.79086 56 12V42.6667C56 44.8758 54.2091 46.6667 52 46.6667C49.7909 46.6667 48 44.8758 48 42.6667V12Z" fill="url(#paint1_linear_3577_11733)"/>
<path d="M56 53.3333C56 55.5425 54.2091 57.3333 52 57.3333C49.7909 57.3333 48 55.5425 48 53.3333C48 51.1242 49.7909 49.3333 52 49.3333C54.2091 49.3333 56 51.1242 56 53.3333Z" fill="url(#paint2_linear_3577_11733)"/>
<path d="M48.25 12C48.25 9.92893 49.9289 8.25 52 8.25C54.0711 8.25 55.75 9.92893 55.75 12V42.6667C55.75 44.7377 54.0711 46.4167 52 46.4167C49.9289 46.4167 48.25 44.7377 48.25 42.6667V12ZM55.75 53.3333C55.75 55.4044 54.0711 57.0833 52 57.0833C49.9289 57.0833 48.25 55.4044 48.25 53.3333C48.25 51.2623 49.9289 49.5833 52 49.5833C54.0711 49.5833 55.75 51.2623 55.75 53.3333Z" stroke="url(#paint3_linear_3577_11733)" stroke-width="0.5"/>
</g>
<defs>
<filter id="filter0_b_3577_11733" x="44" y="4" width="16" height="57.334" filterUnits="userSpaceOnUse" color-interpolation-filters="sRGB">
<feFlood flood-opacity="0" result="BackgroundImageFix"/>
<feGaussianBlur in="BackgroundImageFix" stdDeviation="2"/>
<feComposite in2="SourceAlpha" operator="in" result="effect1_backgroundBlur_3577_11733"/>
<feBlend mode="normal" in="SourceGraphic" in2="effect1_backgroundBlur_3577_11733" result="shape"/>
</filter>
<linearGradient id="paint0_linear_3577_11733" x1="19.332" y1="18.666" x2="71.9987" y2="71.9993" gradientUnits="userSpaceOnUse">
<stop stop-color="#D2F75A"/>
<stop offset="1" stop-color="#4285F4"/>
</linearGradient>
<linearGradient id="paint1_linear_3577_11733" x1="48" y1="53.3333" x2="62.6667" y2="8" gradientUnits="userSpaceOnUse">
<stop stop-color="white" stop-opacity="0.2"/>
<stop offset="1" stop-color="#D6FE88" stop-opacity="0.5"/>
</linearGradient>
<linearGradient id="paint2_linear_3577_11733" x1="48" y1="53.3333" x2="62.6667" y2="8" gradientUnits="userSpaceOnUse">
<stop stop-color="white" stop-opacity="0.2"/>
<stop offset="1" stop-color="#D6FE88" stop-opacity="0.5"/>
</linearGradient>
<linearGradient id="paint3_linear_3577_11733" x1="60.6667" y1="4.66667" x2="44" y2="58" gradientUnits="userSpaceOnUse">
<stop stop-color="#E8F2C7"/>
<stop offset="1" stop-color="#DBEEC6"/>
</linearGradient>
</defs>
</svg>
